%TF.GenerationSoftware,KiCad,Pcbnew,9.0.9.1-unknown-202605141413~ce707d0a6c~ubuntu24.04.1*%
%TF.CreationDate,2026-09-18T10:15:02+00:00*%
%TF.ProjectId,pinpath,70696e70-6174-4682-9e6b-696361645f70,rev?*%
%TF.SameCoordinates,Original*%
%TF.FileFunction,Soldermask,Bot*%
%TF.FilePolarity,Negative*%
%FSLAX46Y46*%
G04 Gerber Fmt 4.6, Leading zero omitted, Abs format (unit mm)*
G04 Created by KiCad (PCBNEW 9.0.9.1-unknown-202605141413~ce707d0a6c~ubuntu24.04.1) date 2026-09-18 10:15:02*
%MOMM*%
%LPD*%
G01*
G04 APERTURE LIST*
G04 Aperture macros list*
%AMRoundRect*
0 Rectangle with rounded corners*
0 $1 Rounding radius*
0 $2 $3 $4 $5 $6 $7 $8 $9 X,Y pos of 4 corners*
0 Add a 4 corners polygon primitive as box body*
4,1,4,$2,$3,$4,$5,$6,$7,$8,$9,$2,$3,0*
0 Add four circle primitives for the rounded corners*
1,1,$1+$1,$2,$3*
1,1,$1+$1,$4,$5*
1,1,$1+$1,$6,$7*
1,1,$1+$1,$8,$9*
0 Add four rect primitives between the rounded corners*
20,1,$1+$1,$2,$3,$4,$5,0*
20,1,$1+$1,$4,$5,$6,$7,0*
20,1,$1+$1,$6,$7,$8,$9,0*
20,1,$1+$1,$8,$9,$2,$3,0*%
G04 Aperture macros list end*
%ADD10C,3.200000*%
%ADD11C,2.200000*%
%ADD12C,1.850000*%
%ADD13C,1.900000*%
%ADD14C,3.000000*%
%ADD15RoundRect,0.250001X-0.499999X-0.499999X0.499999X-0.499999X0.499999X0.499999X-0.499999X0.499999X0*%
%ADD16C,1.500000*%
G04 APERTURE END LIST*
D10*
%TO.C,H3*%
X91000000Y-71000000D03*
%TD*%
D11*
%TO.C,U1*%
X9875000Y-20000000D03*
D12*
X10175000Y-23030000D03*
X15025000Y-23030000D03*
D11*
X15325000Y-20000000D03*
%TD*%
D13*
%TO.C,TP2*%
X83500000Y-21800000D03*
%TD*%
D14*
%TO.C,J2*%
X70760000Y-5180000D03*
X87460000Y-5180000D03*
D15*
X68600000Y-9500000D03*
D16*
X71600000Y-9500000D03*
X74600000Y-9500000D03*
X77600000Y-9500000D03*
X80600000Y-9500000D03*
X83600000Y-9500000D03*
X86600000Y-9500000D03*
X89600000Y-9500000D03*
X68600000Y-12500000D03*
X71600000Y-12500000D03*
X74600000Y-12500000D03*
X77600000Y-12500000D03*
X80600000Y-12500000D03*
X83600000Y-12500000D03*
X86600000Y-12500000D03*
X89600000Y-12500000D03*
%TD*%
D13*
%TO.C,TP3*%
X85500000Y-25600000D03*
%TD*%
D10*
%TO.C,H2*%
X91000000Y-44000000D03*
%TD*%
D13*
%TO.C,TP12*%
X83000000Y-55300000D03*
%TD*%
D14*
%TO.C,J1*%
X41360000Y-5180000D03*
X58060000Y-5180000D03*
D15*
X39200000Y-9500000D03*
D16*
X42200000Y-9500000D03*
X45200000Y-9500000D03*
X48200000Y-9500000D03*
X51200000Y-9500000D03*
X54200000Y-9500000D03*
X57200000Y-9500000D03*
X60200000Y-9500000D03*
X39200000Y-12500000D03*
X42200000Y-12500000D03*
X45200000Y-12500000D03*
X48200000Y-12500000D03*
X51200000Y-12500000D03*
X54200000Y-12500000D03*
X57200000Y-12500000D03*
X60200000Y-12500000D03*
%TD*%
D13*
%TO.C,TP5*%
X85500000Y-29700000D03*
%TD*%
%TO.C,TP7*%
X80500000Y-41300000D03*
%TD*%
%TO.C,TP10*%
X84000000Y-47700000D03*
%TD*%
%TO.C,TP11*%
X83500000Y-51500000D03*
%TD*%
%TO.C,TP9*%
X80500000Y-47900000D03*
%TD*%
%TO.C,TP1*%
X84000000Y-18000000D03*
%TD*%
D10*
%TO.C,H1*%
X5000000Y-5000000D03*
%TD*%
%TO.C,H4*%
X28500000Y-70500000D03*
%TD*%
D13*
%TO.C,TP8*%
X84000000Y-41100000D03*
%TD*%
%TO.C,TP6*%
X84000000Y-34500000D03*
%TD*%
%TO.C,TP4*%
X89000000Y-22900000D03*
%TD*%
M02*
