M48
; DRILL file {KiCad 9.0.9.1-unknown-202605141413~ce707d0a6c~ubuntu24.04.1} date 2026-09-18T10:15:03+0000
; FORMAT={-:-/ absolute / metric / decimal}
; #@! TF.CreationDate,2026-09-18T10:15:03+00:00
; #@! TF.GenerationSoftware,Kicad,Pcbnew,9.0.9.1-unknown-202605141413~ce707d0a6c~ubuntu24.04.1
; #@! TF.FileFunction,MixedPlating,1,2
FMAT,2
METRIC
; #@! TA.AperFunction,Plated,PTH,ViaDrill
T1C0.300
; #@! TA.AperFunction,Plated,PTH,ComponentDrill
T2C1.000
; #@! TA.AperFunction,Plated,PTH,ComponentDrill
T3C1.020
; #@! TA.AperFunction,NonPlated,NPTH,ComponentDrill
T4C1.850
; #@! TA.AperFunction,NonPlated,NPTH,ComponentDrill
T5C2.200
; #@! TA.AperFunction,NonPlated,NPTH,ComponentDrill
T6C3.000
; #@! TA.AperFunction,NonPlated,NPTH,ComponentDrill
T7C3.200
%
G90
G05
T1
X7.186Y-42.396
X7.188Y-52.162
X8.21Y-23.982
X9.274Y-47.201
X9.274Y-57.465
X9.276Y-54.91
X10.103Y-34.48
X11.298Y-39.465
X12.308Y-7.226
X13.018Y-61.585
X15.934Y-1.62
X15.934Y-44.758
X16.744Y-69.625
X17.606Y-68.773
X17.699Y-67.149
X17.97Y-73.366
X18.02Y-45.124
X18.024Y-74.241
X18.348Y-35.528
X18.849Y-73.033
X18.85Y-36.534
X19.287Y-24.618
X19.404Y-65.616
X19.523Y-45.856
X19.726Y-26.859
X19.728Y-73.77
X24.068Y-63.964
X24.269Y-42.018
X24.396Y-42.871
X24.503Y-47.5
X24.582Y-57.931
X24.737Y-56.558
X25.065Y-66.199
X25.099Y-45.559
X25.18Y-29.44
X25.394Y-55.899
X25.71Y-41.5
X25.723Y-51.446
X25.76Y-21.257
X26.117Y-69.862
X26.39Y-52.48
X26.531Y-57.115
X26.539Y-22.623
X26.656Y-53.919
X26.852Y-44.335
X26.852Y-46.894
X26.852Y-47.809
X27.062Y-50.538
X27.315Y-63.062
X27.492Y-20.25
X27.594Y-7.226
X27.698Y-60.979
X27.734Y-59.101
X27.866Y-29.184
X28.129Y-18.163
X28.213Y-21.056
X28.283Y-38.514
X28.571Y-50.618
X28.637Y-56.594
X28.734Y-43.198
X28.744Y-7.488
X29.421Y-55.465
X29.607Y-56.267
X29.639Y-46.081
X29.654Y-47.933
X29.773Y-49.069
X30.18Y-51.316
X30.197Y-62.14
X30.258Y-34.047
X30.316Y-23.908
X30.409Y-52.475
X30.417Y-22.186
X30.445Y-31.577
X30.537Y-39.784
X30.924Y-45.138
X30.943Y-28.067
X31.027Y-48.531
X31.038Y-45.988
X31.29Y-56.232
X31.3Y-40.221
X31.318Y-50.642
X31.333Y-26.703
X31.39Y-52.705
X31.491Y-41.766
X31.511Y-35.872
X31.566Y-66.193
X31.586Y-58.159
X31.654Y-22.061
X31.743Y-20.376
X31.905Y-53.919
X31.939Y-47.269
X32.343Y-48.0
X32.375Y-51.345
X32.43Y-45.935
X32.461Y-30.153
X32.496Y-44.518
X32.603Y-53.267
X32.979Y-39.644
X33.293Y-67.406
X33.571Y-57.811
X33.716Y-28.2
X33.91Y-62.205
X34.023Y-43.605
X34.05Y-15.281
X34.204Y-60.767
X34.48Y-18.037
X35.142Y-44.408
X35.179Y-45.546
X35.237Y-22.936
X35.254Y-33.448
X35.308Y-46.432
X35.334Y-54.734
X35.427Y-38.894
X35.431Y-47.581
X35.454Y-50.376
X35.542Y-34.428
X35.549Y-57.49
X35.628Y-62.102
X35.705Y-55.637
X35.783Y-48.77
X35.984Y-36.098
X36.036Y-41.992
X36.075Y-68.601
X36.269Y-24.055
X36.845Y-25.113
X36.978Y-69.187
X37.006Y-42.2
X37.269Y-37.698
X37.325Y-38.974
X37.339Y-50.334
X37.633Y-36.679
X37.883Y-43.653
X37.937Y-57.92
X38.273Y-50.419
X38.467Y-61.301
X38.624Y-24.907
X38.654Y-6.463
X38.661Y-36.69
X38.682Y-47.66
X38.747Y-39.642
X38.8Y-69.087
X38.972Y-45.594
X39.212Y-55.1
X39.245Y-40.845
X39.276Y-51.468
X39.277Y-11.22
X39.627Y-56.22
X40.096Y-24.321
X40.898Y-55.052
X41.072Y-48.08
X41.074Y-28.448
X41.111Y-66.007
X41.21Y-54.118
X41.282Y-66.9
X41.352Y-51.881
X41.457Y-48.912
X41.567Y-39.9
X41.62Y-35.951
X41.881Y-68.785
X41.897Y-32.31
X41.911Y-61.512
X41.923Y-64.01
X41.996Y-70.592
X42.314Y-65.843
X42.386Y-16.647
X42.753Y-24.473
X43.396Y-32.566
X43.582Y-11.504
X43.78Y-18.098
X43.866Y-70.251
X44.041Y-38.577
X44.079Y-66.623
X44.094Y-63.783
X44.507Y-47.977
X44.735Y-51.999
X44.906Y-46.102
X45.086Y-71.921
X45.086Y-73.77
X45.565Y-36.5
X45.825Y-41.922
X46.023Y-47.46
X46.068Y-64.138
X46.12Y-26.798
X46.174Y-51.726
X46.224Y-38.38
X46.283Y-34.791
X46.857Y-43.928
X46.864Y-46.471
X47.104Y-47.973
X47.315Y-28.741
X48.004Y-53.84
X48.777Y-42.186
X48.831Y-58.318
X48.85Y-39.261
X48.93Y-35.694
X49.221Y-46.14
X49.433Y-68.831
X49.916Y-60.556
X50.094Y-35.547
X50.579Y-40.475
X50.629Y-32.573
X50.916Y-75.117
X50.918Y-65.842
X51.195Y-22.657
X51.243Y-54.119
X51.438Y-55.656
X51.567Y-56.88
X51.574Y-45.787
X52.275Y-55.149
X52.754Y-41.735
X53.198Y-24.813
X53.437Y-64.787
X53.546Y-55.007
X53.614Y-48.833
X53.994Y-21.427
X54.097Y-56.992
X54.323Y-19.893
X54.673Y-49.103
X55.002Y-25.151
X55.029Y-50.953
X55.06Y-29.671
X55.288Y-44.97
X55.495Y-43.357
X55.751Y-50.269
X55.892Y-48.614
X55.9Y-40.849
X55.924Y-42.328
X56.029Y-54.258
X56.038Y-47.622
X56.5Y-38.692
X56.786Y-16.546
X56.961Y-25.878
X57.206Y-43.192
X57.403Y-50.511
X58.46Y-38.7
X58.467Y-24.625
X58.627Y-42.968
X58.924Y-62.15
X58.981Y-53.962
X59.052Y-47.02
X59.224Y-55.801
X59.406Y-50.705
X59.463Y-17.799
X59.49Y-43.351
X59.618Y-41.727
X59.809Y-48.981
X60.072Y-39.196
X60.16Y-36.534
X60.463Y-51.835
X60.482Y-47.138
X60.671Y-59.972
X60.68Y-48.554
X61.117Y-53.719
X61.453Y-46.262
X61.475Y-13.816
X61.642Y-54.623
X61.772Y-56.188
X61.984Y-52.048
X62.032Y-15.055
X62.577Y-1.62
X62.783Y-41.463
X62.817Y-70.528
X62.874Y-21.618
X62.939Y-42.396
X63.209Y-32.807
X63.355Y-50.226
X63.737Y-38.507
X63.768Y-37.579
X63.94Y-43.096
X63.963Y-39.917
X64.741Y-54.631
X64.755Y-55.918
X64.758Y-62.563
X64.958Y-53.439
X64.96Y-47.642
X64.972Y-49.103
X64.982Y-14.575
X64.997Y-35.844
X65.134Y-34.43
X65.264Y-29.941
X65.271Y-40.114
X65.29Y-46.419
X65.292Y-44.468
X65.573Y-62.783
X65.611Y-58.459
X65.686Y-17.99
X65.695Y-38.677
X66.039Y-18.773
X66.127Y-25.7
X66.433Y-35.584
X66.486Y-24.524
X66.525Y-39.604
X66.545Y-56.603
X67.087Y-42.759
X67.552Y-38.595
X67.571Y-75.142
X67.844Y-52.489
X67.849Y-46.687
X67.861Y-48.625
X68.089Y-53.514
X68.407Y-74.444
X68.454Y-42.379
X68.496Y-50.808
X68.785Y-16.099
X68.799Y-56.605
X68.896Y-36.004
X68.932Y-46.233
X68.933Y-23.583
X69.003Y-54.839
X69.028Y-64.818
X69.297Y-58.194
X69.388Y-64.001
X69.422Y-34.628
X69.497Y-48.388
X69.734Y-62.797
X69.851Y-40.504
X69.906Y-53.43
X70.16Y-47.431
X70.246Y-44.596
X70.347Y-12.586
X70.495Y-20.183
X70.686Y-55.974
X70.807Y-66.484
X70.868Y-54.716
X71.01Y-47.893
X71.269Y-50.315
X71.31Y-18.668
X71.314Y-17.133
X71.9Y-29.452
X72.232Y-16.347
X72.743Y-50.463
X73.09Y-42.959
X73.189Y-22.765
X73.2Y-41.998
X73.239Y-32.897
X73.494Y-29.495
X73.551Y-36.689
X73.56Y-54.548
X73.662Y-49.6
X73.834Y-46.96
X73.9Y-34.057
X74.266Y-47.803
X74.391Y-57.895
X74.59Y-45.776
X74.825Y-29.411
X74.825Y-49.021
X75.085Y-40.053
X75.906Y-44.702
X76.024Y-22.577
X76.349Y-20.547
X76.694Y-29.906
X77.153Y-61.721
X77.904Y-38.633
X78.43Y-28.741
X78.492Y-15.708
X78.788Y-22.936
X78.912Y-41.799
X78.927Y-44.611
X79.227Y-67.928
X79.261Y-40.481
X79.697Y-44.065
X79.8Y-35.761
X79.893Y-13.952
X79.991Y-68.696
X80.118Y-71.733
X80.6Y-29.804
X82.019Y-28.29
X82.492Y-35.309
X84.179Y-19.638
X85.2Y-25.2
X85.346Y-33.025
X85.444Y-39.362
X85.898Y-59.981
X87.159Y-8.097
X89.384Y-7.365
T2
X80.5Y-41.3
X80.5Y-47.9
X83.0Y-55.3
X83.5Y-21.8
X83.5Y-51.5
X84.0Y-18.0
X84.0Y-34.5
X84.0Y-41.1
X84.0Y-47.7
X85.5Y-25.6
X85.5Y-29.7
X89.0Y-22.9
T3
X39.2Y-9.5
X39.2Y-12.5
X42.2Y-9.5
X42.2Y-12.5
X45.2Y-9.5
X45.2Y-12.5
X48.2Y-9.5
X48.2Y-12.5
X51.2Y-9.5
X51.2Y-12.5
X54.2Y-9.5
X54.2Y-12.5
X57.2Y-9.5
X57.2Y-12.5
X60.2Y-9.5
X60.2Y-12.5
X68.6Y-9.5
X68.6Y-12.5
X71.6Y-9.5
X71.6Y-12.5
X74.6Y-9.5
X74.6Y-12.5
X77.6Y-9.5
X77.6Y-12.5
X80.6Y-9.5
X80.6Y-12.5
X83.6Y-9.5
X83.6Y-12.5
X86.6Y-9.5
X86.6Y-12.5
X89.6Y-9.5
X89.6Y-12.5
T4
X10.175Y-23.03
X15.025Y-23.03
T5
X9.875Y-20.0
X15.325Y-20.0
T6
X41.36Y-5.18
X58.06Y-5.18
X70.76Y-5.18
X87.46Y-5.18
T7
X5.0Y-5.0
X28.5Y-70.5
X91.0Y-44.0
X91.0Y-71.0
M30
