%TF.GenerationSoftware,KiCad,Pcbnew,9.0.9.1-unknown-202605141413~ce707d0a6c~ubuntu24.04.1*%
%TF.CreationDate,2026-09-18T10:15:02+00:00*%
%TF.ProjectId,pinpath,70696e70-6174-4682-9e6b-696361645f70,rev?*%
%TF.SameCoordinates,Original*%
%TF.FileFunction,Copper,L2,Bot*%
%TF.FilePolarity,Positive*%
%FSLAX46Y46*%
G04 Gerber Fmt 4.6, Leading zero omitted, Abs format (unit mm)*
G04 Created by KiCad (PCBNEW 9.0.9.1-unknown-202605141413~ce707d0a6c~ubuntu24.04.1) date 2026-09-18 10:15:02*
%MOMM*%
%LPD*%
G01*
G04 APERTURE LIST*
G04 Aperture macros list*
%AMRoundRect*
0 Rectangle with rounded corners*
0 $1 Rounding radius*
0 $2 $3 $4 $5 $6 $7 $8 $9 X,Y pos of 4 corners*
0 Add a 4 corners polygon primitive as box body*
4,1,4,$2,$3,$4,$5,$6,$7,$8,$9,$2,$3,0*
0 Add four circle primitives for the rounded corners*
1,1,$1+$1,$2,$3*
1,1,$1+$1,$4,$5*
1,1,$1+$1,$6,$7*
1,1,$1+$1,$8,$9*
0 Add four rect primitives between the rounded corners*
20,1,$1+$1,$2,$3,$4,$5,0*
20,1,$1+$1,$4,$5,$6,$7,0*
20,1,$1+$1,$6,$7,$8,$9,0*
20,1,$1+$1,$8,$9,$2,$3,0*%
G04 Aperture macros list end*
%TA.AperFunction,ComponentPad*%
%ADD10C,1.900000*%
%TD*%
%TA.AperFunction,ComponentPad*%
%ADD11RoundRect,0.250001X-0.499999X-0.499999X0.499999X-0.499999X0.499999X0.499999X-0.499999X0.499999X0*%
%TD*%
%TA.AperFunction,ComponentPad*%
%ADD12C,1.500000*%
%TD*%
%TA.AperFunction,ViaPad*%
%ADD13C,0.600000*%
%TD*%
%TA.AperFunction,Conductor*%
%ADD14C,0.200000*%
%TD*%
G04 APERTURE END LIST*
D10*
%TO.P,TP2,1*%
%TO.N,/+3V3*%
X83500000Y-21800000D03*
%TD*%
D11*
%TO.P,J2,1*%
%TO.N,/B:01*%
X68600000Y-9500000D03*
D12*
%TO.P,J2,2*%
%TO.N,/B:02*%
X71600000Y-9500000D03*
%TO.P,J2,3*%
%TO.N,/B:03*%
X74600000Y-9500000D03*
%TO.P,J2,4*%
%TO.N,/B:04*%
X77600000Y-9500000D03*
%TO.P,J2,5*%
%TO.N,/B:05*%
X80600000Y-9500000D03*
%TO.P,J2,6*%
%TO.N,/B:06*%
X83600000Y-9500000D03*
%TO.P,J2,7*%
%TO.N,/B:07*%
X86600000Y-9500000D03*
%TO.P,J2,8*%
%TO.N,/B:08*%
X89600000Y-9500000D03*
%TO.P,J2,9*%
%TO.N,/B:09*%
X68600000Y-12500000D03*
%TO.P,J2,10*%
%TO.N,/B:10*%
X71600000Y-12500000D03*
%TO.P,J2,11*%
%TO.N,/B:11*%
X74600000Y-12500000D03*
%TO.P,J2,12*%
%TO.N,/B:12*%
X77600000Y-12500000D03*
%TO.P,J2,13*%
%TO.N,/B:13*%
X80600000Y-12500000D03*
%TO.P,J2,14*%
%TO.N,/B:14*%
X83600000Y-12500000D03*
%TO.P,J2,15*%
%TO.N,/B:15*%
X86600000Y-12500000D03*
%TO.P,J2,16*%
%TO.N,/B:16*%
X89600000Y-12500000D03*
%TD*%
D10*
%TO.P,TP3,1*%
%TO.N,/GND*%
X85500000Y-25600000D03*
%TD*%
%TO.P,TP12,1*%
%TO.N,/RUN*%
X83000000Y-55300000D03*
%TD*%
D11*
%TO.P,J1,1*%
%TO.N,/A:01*%
X39200000Y-9500000D03*
D12*
%TO.P,J1,2*%
%TO.N,/A:02*%
X42200000Y-9500000D03*
%TO.P,J1,3*%
%TO.N,/A:03*%
X45200000Y-9500000D03*
%TO.P,J1,4*%
%TO.N,/A:04*%
X48200000Y-9500000D03*
%TO.P,J1,5*%
%TO.N,/A:05*%
X51200000Y-9500000D03*
%TO.P,J1,6*%
%TO.N,/A:06*%
X54200000Y-9500000D03*
%TO.P,J1,7*%
%TO.N,/A:07*%
X57200000Y-9500000D03*
%TO.P,J1,8*%
%TO.N,/A:08*%
X60200000Y-9500000D03*
%TO.P,J1,9*%
%TO.N,/A:09*%
X39200000Y-12500000D03*
%TO.P,J1,10*%
%TO.N,/A:10*%
X42200000Y-12500000D03*
%TO.P,J1,11*%
%TO.N,/A:11*%
X45200000Y-12500000D03*
%TO.P,J1,12*%
%TO.N,/A:12*%
X48200000Y-12500000D03*
%TO.P,J1,13*%
%TO.N,/A:13*%
X51200000Y-12500000D03*
%TO.P,J1,14*%
%TO.N,/A:14*%
X54200000Y-12500000D03*
%TO.P,J1,15*%
%TO.N,/A:15*%
X57200000Y-12500000D03*
%TO.P,J1,16*%
%TO.N,/A:16*%
X60200000Y-12500000D03*
%TD*%
D10*
%TO.P,TP5,1*%
%TO.N,/BIAS*%
X85500000Y-29700000D03*
%TD*%
%TO.P,TP7,1*%
%TO.N,/DRV_A_LO_EN*%
X80500000Y-41300000D03*
%TD*%
%TO.P,TP10,1*%
%TO.N,/A:01_NODE*%
X84000000Y-47700000D03*
%TD*%
%TO.P,TP11,1*%
%TO.N,/B:01_NODE*%
X83500000Y-51500000D03*
%TD*%
%TO.P,TP9,1*%
%TO.N,/FAULT_LED*%
X80500000Y-47900000D03*
%TD*%
%TO.P,TP1,1*%
%TO.N,/VBUS*%
X84000000Y-18000000D03*
%TD*%
%TO.P,TP8,1*%
%TO.N,/READY_LED*%
X84000000Y-41100000D03*
%TD*%
%TO.P,TP6,1*%
%TO.N,/STIM*%
X84000000Y-34500000D03*
%TD*%
%TO.P,TP4,1*%
%TO.N,/ADC_REF_1V8*%
X89000000Y-22900000D03*
%TD*%
D13*
%TO.N,/+3V3*%
X32602600Y-53266500D03*
X48003600Y-53840500D03*
X43396200Y-32566000D03*
X34204200Y-60766700D03*
X64958400Y-53438900D03*
X73661800Y-49600100D03*
X65611400Y-58458500D03*
X35307700Y-46432100D03*
X80599700Y-29803900D03*
X65573200Y-62783200D03*
X73834400Y-46959700D03*
X69297500Y-58194400D03*
X65289800Y-46418600D03*
X49916200Y-60555700D03*
X44906300Y-46101700D03*
%TO.N,/A:01*%
X31332700Y-26703000D03*
%TO.N,/A:01_NODE*%
X28743700Y-7488100D03*
X29638700Y-46080800D03*
X26390500Y-52479800D03*
X30257900Y-34047400D03*
X89384200Y-7364800D03*
X26538800Y-22623100D03*
%TO.N,/A:02_NODE*%
X26656200Y-53919000D03*
X19287400Y-24618300D03*
X24582000Y-57931200D03*
X30417200Y-22185800D03*
X31510800Y-35872200D03*
X26531000Y-57114600D03*
X27734500Y-59101300D03*
X28128900Y-18162900D03*
X29653900Y-47932900D03*
X31654300Y-22060900D03*
%TO.N,/A:03*%
X36268700Y-24055200D03*
%TO.N,/A:03_NODE*%
X26851900Y-47809100D03*
X9274400Y-47201000D03*
X9276000Y-54909800D03*
X28282700Y-38513500D03*
X30316300Y-23908200D03*
%TO.N,/A:04*%
X31743000Y-20376200D03*
X34049900Y-15281400D03*
%TO.N,/A:04_NODE*%
X31939000Y-47269300D03*
X36845000Y-25113500D03*
X29773300Y-49068700D03*
X37268800Y-37698100D03*
X29421100Y-55465000D03*
X34480500Y-18036500D03*
X35237300Y-22935800D03*
%TO.N,/A:05*%
X46120500Y-26798300D03*
%TO.N,/A:05_NODE*%
X38653800Y-6462800D03*
X28734200Y-43197600D03*
X31904700Y-53918800D03*
X30444900Y-31577200D03*
X31586400Y-58159100D03*
X42752600Y-24472500D03*
X43582100Y-11503900D03*
X43780400Y-18098200D03*
X42385800Y-16646900D03*
X12307600Y-7226200D03*
X39277400Y-11220200D03*
X32461400Y-30153300D03*
X9274400Y-57464800D03*
%TO.N,/A:06_NODE*%
X40095500Y-24321100D03*
X49221300Y-46139700D03*
X48831000Y-58317700D03*
X30943100Y-28066600D03*
X33716400Y-28199500D03*
X32343300Y-48000200D03*
X51573700Y-45786700D03*
X31300000Y-40221200D03*
%TO.N,/A:07_NODE*%
X32430300Y-45934700D03*
X31390300Y-52705400D03*
X31038100Y-45988000D03*
X30180000Y-51315700D03*
X31289600Y-56232100D03*
X52274700Y-55149400D03*
X53197600Y-24812700D03*
X31027200Y-48531200D03*
X32495900Y-44518100D03*
%TO.N,/A:08*%
X54322800Y-19893200D03*
%TO.N,/A:08_NODE*%
X37005800Y-42199500D03*
X51194900Y-22656700D03*
X48777200Y-42186500D03*
X56786400Y-16546100D03*
X35782700Y-48770400D03*
X35549400Y-57490400D03*
%TO.N,/A:09*%
X30537400Y-39784000D03*
%TO.N,/A:09_NODE*%
X31317600Y-50641500D03*
X34022500Y-43604700D03*
X32979300Y-39643700D03*
X35179300Y-45545700D03*
%TO.N,/A:10*%
X26851900Y-44334900D03*
X27492300Y-20249700D03*
%TO.N,/A:10_NODE*%
X24502600Y-47500000D03*
X24396000Y-42870900D03*
X24736600Y-56557800D03*
X35430600Y-47581200D03*
X33570800Y-57810600D03*
X35334300Y-54734500D03*
X36036500Y-41992500D03*
%TO.N,/A:11*%
X35983600Y-36098300D03*
%TO.N,/A:11_NODE*%
X35426800Y-38894400D03*
X41566800Y-39900000D03*
X39276200Y-51468300D03*
X38681600Y-47660100D03*
X35542000Y-34428100D03*
%TO.N,/A:12*%
X37633200Y-36679200D03*
%TO.N,/A:12_NODE*%
X44735000Y-51999100D03*
X44040700Y-38577200D03*
X31491300Y-41765600D03*
X41896700Y-32309800D03*
X35253600Y-33448400D03*
%TO.N,/A:13*%
X47315000Y-28741400D03*
%TO.N,/A:13_NODE*%
X37324500Y-38974000D03*
X41073700Y-28448400D03*
X38971600Y-45594400D03*
%TO.N,/A:14*%
X48850000Y-39260600D03*
%TO.N,/A:14_NODE*%
X40898500Y-55051700D03*
X41071600Y-48079800D03*
X41619900Y-35951300D03*
X38747500Y-39641600D03*
%TO.N,/A:15*%
X48929700Y-35694500D03*
%TO.N,/A:15_NODE*%
X51242600Y-54119100D03*
X46283300Y-34791000D03*
X46223800Y-38380500D03*
X45824800Y-41921600D03*
%TO.N,/A:16*%
X50093900Y-35547400D03*
%TO.N,/A:16_NODE*%
X50628700Y-32573200D03*
X41457300Y-48912100D03*
X39245000Y-40845100D03*
X39626900Y-56220000D03*
X50578700Y-40475000D03*
%TO.N,/ADC_REF_1V8*%
X18348300Y-35527700D03*
X45085600Y-71921100D03*
X85898400Y-59980600D03*
X17699300Y-67148800D03*
X44079400Y-66623000D03*
%TO.N,/B:01*%
X58466800Y-24624700D03*
%TO.N,/B:01_NODE*%
X64757800Y-62563200D03*
X55002400Y-25151200D03*
X55900000Y-40848800D03*
X70807400Y-66483800D03*
X53545600Y-55006900D03*
X61771900Y-56187900D03*
X53613800Y-48832900D03*
%TO.N,/B:02*%
X65686100Y-17990400D03*
%TO.N,/B:02_NODE*%
X59462600Y-17799200D03*
X58627200Y-42967600D03*
X58980800Y-53961700D03*
X59051700Y-47019600D03*
%TO.N,/B:03*%
X62874500Y-21618200D03*
%TO.N,/B:03_NODE*%
X55924500Y-42327700D03*
X57402700Y-50510500D03*
X56038500Y-47621900D03*
X56960800Y-25878000D03*
%TO.N,/B:04*%
X68932900Y-23582900D03*
%TO.N,/B:04_NODE*%
X55892500Y-48614200D03*
X63939600Y-43096100D03*
X56028700Y-54258500D03*
X66127000Y-25700000D03*
X63962900Y-39916900D03*
X57206500Y-43192200D03*
X62782800Y-41463100D03*
%TO.N,/B:05*%
X73189500Y-22765300D03*
%TO.N,/B:05_NODE*%
X71314100Y-17132600D03*
X68785500Y-16098700D03*
X70495300Y-20183500D03*
X70347500Y-12586300D03*
X60482000Y-47138100D03*
X61475200Y-13815700D03*
X61117000Y-53719000D03*
X59618100Y-41727500D03*
X56499700Y-38692500D03*
%TO.N,/B:06*%
X76024300Y-22577200D03*
X79892700Y-13951900D03*
%TO.N,/B:06_NODE*%
X61642500Y-54623200D03*
X59809100Y-48981000D03*
X60072100Y-39195700D03*
X66485700Y-24524000D03*
%TO.N,/B:07*%
X78787700Y-22935800D03*
%TO.N,/B:07_NODE*%
X59489600Y-43351100D03*
X60463100Y-51834600D03*
X66038600Y-18772600D03*
X60680200Y-48553700D03*
%TO.N,/B:08*%
X76349300Y-20546900D03*
X78492100Y-15708300D03*
%TO.N,/B:08_NODE*%
X64754900Y-55917600D03*
X63355400Y-50226100D03*
X71310100Y-18667900D03*
X62938800Y-42395900D03*
%TO.N,/B:09*%
X60160100Y-36534200D03*
%TO.N,/B:09_NODE*%
X67849300Y-46687000D03*
X71900200Y-29452000D03*
X79697200Y-44064900D03*
X68896100Y-36004000D03*
X73494400Y-29494700D03*
X68089400Y-53514300D03*
X63768400Y-37579500D03*
X65134000Y-34429700D03*
X68799200Y-56604800D03*
%TO.N,/B:10*%
X64982400Y-14574900D03*
X58459800Y-38699800D03*
%TO.N,/B:10_NODE*%
X65694900Y-38676800D03*
X64960400Y-47641900D03*
X64741200Y-54630800D03*
%TO.N,/B:11*%
X64996900Y-35844400D03*
%TO.N,/B:11_NODE*%
X69003300Y-54838600D03*
X69496700Y-48388200D03*
X63737500Y-38507100D03*
X63209200Y-32807200D03*
X66525100Y-39604400D03*
%TO.N,/B:12*%
X77904100Y-38632600D03*
X76694000Y-29906400D03*
X74824800Y-29410800D03*
%TO.N,/B:12_NODE*%
X67552200Y-38595100D03*
X64971900Y-49102600D03*
X67087200Y-42758800D03*
X66545100Y-56603000D03*
X66433500Y-35584100D03*
X65264300Y-29940800D03*
X67861200Y-48625000D03*
%TO.N,/B:13*%
X75085400Y-40053500D03*
%TO.N,/B:13_NODE*%
X73089800Y-42958500D03*
X68454500Y-42379300D03*
X75905500Y-44701900D03*
X69422500Y-34628100D03*
X70868400Y-54716100D03*
X65271200Y-40114500D03*
X74265800Y-47803100D03*
%TO.N,/B:14*%
X79260900Y-40480700D03*
%TO.N,/B:14_NODE*%
X73899700Y-34057200D03*
X73551400Y-36688800D03*
X74824900Y-49021500D03*
X73559700Y-54547900D03*
X71009600Y-47893500D03*
X73199600Y-41998300D03*
X78926600Y-44611400D03*
%TO.N,/B:15*%
X79800000Y-35760600D03*
%TO.N,/B:15_NODE*%
X73239500Y-32897000D03*
X70159800Y-47430900D03*
X69851400Y-40503600D03*
X69905700Y-53429600D03*
%TO.N,/B:16*%
X82492500Y-35309400D03*
%TO.N,/B:16_NODE*%
X85444500Y-39362500D03*
X85346100Y-33025300D03*
%TO.N,/BIAS*%
X26851900Y-46893600D03*
X82019200Y-28290200D03*
X38661300Y-36689600D03*
X52754300Y-41734900D03*
X55060400Y-29671200D03*
X78912400Y-41798800D03*
X38624200Y-24906900D03*
X45565100Y-36500000D03*
X78430200Y-28741400D03*
X84179000Y-19638300D03*
X27866400Y-29184200D03*
X53994500Y-21426700D03*
X28212900Y-21056100D03*
X50917600Y-65841600D03*
%TO.N,/DRV_A_HI_EN*%
X31565600Y-66193400D03*
X10103200Y-34480000D03*
X41111000Y-66007300D03*
X46174300Y-51726000D03*
X33292900Y-67405800D03*
X44094200Y-63783200D03*
X27698200Y-60978700D03*
X13018400Y-61585000D03*
%TO.N,/DRV_A_LO_EN*%
X27594400Y-7226200D03*
X25099200Y-45559500D03*
X25180500Y-29440300D03*
X87159300Y-8097400D03*
X27315200Y-63061600D03*
%TO.N,/DRV_B_HI_EN*%
X70245700Y-44595700D03*
X72232300Y-16346900D03*
X16743500Y-69624600D03*
X15933600Y-1620000D03*
X26117100Y-69862000D03*
X11298000Y-39465000D03*
X62576800Y-1620000D03*
X41281600Y-66900300D03*
X62032400Y-15054800D03*
%TO.N,/DRV_B_LO_EN*%
X24067700Y-63963900D03*
X18850400Y-36534200D03*
X36075400Y-68601200D03*
X47103700Y-47973100D03*
%TO.N,/FAULT_LED*%
X77152800Y-61720900D03*
%TO.N,/GND*%
X85200000Y-25200000D03*
%TO.N,/MUX_A0*%
X25722500Y-51445800D03*
X35453600Y-50376000D03*
X35704700Y-55637300D03*
X43866300Y-70251500D03*
X49432900Y-68830800D03*
X55494900Y-43357400D03*
X38800000Y-69087000D03*
X67843600Y-52489100D03*
X55751100Y-50269100D03*
X25759700Y-21257100D03*
X25709800Y-41500000D03*
X51438000Y-55655700D03*
X55288300Y-44970400D03*
X65291800Y-44467900D03*
%TO.N,/MUX_A1*%
X46068300Y-64137800D03*
X72743200Y-50463200D03*
X46856900Y-43928200D03*
X45085600Y-73770100D03*
X46863900Y-46471300D03*
X35142400Y-44408300D03*
X41910600Y-61511600D03*
X19728200Y-73770100D03*
X8210300Y-23981700D03*
X41352000Y-51881100D03*
X37883500Y-43652600D03*
X74589900Y-45775600D03*
X46023000Y-47460400D03*
X32375400Y-51344700D03*
%TO.N,/MUX_A2*%
X29606900Y-56266800D03*
X28571000Y-50618400D03*
X27062500Y-50538400D03*
X68931800Y-46232800D03*
X42314500Y-65843200D03*
X55029100Y-50952900D03*
X41210500Y-54117800D03*
X19725600Y-26858800D03*
X61984500Y-52048300D03*
X68496500Y-50808100D03*
X61453400Y-46261900D03*
X59406400Y-50704700D03*
X44507100Y-47976600D03*
X30923700Y-45138300D03*
%TO.N,/READY_LED*%
X25064900Y-66199400D03*
X41995900Y-70592200D03*
X58924400Y-62149700D03*
X19403700Y-65615600D03*
X41881100Y-68785300D03*
%TO.N,/RUN*%
X79990600Y-68695600D03*
X18848800Y-73033400D03*
X18020000Y-45124300D03*
%TO.N,/SENSE_A*%
X39212300Y-55100500D03*
X25394100Y-55898700D03*
X24268600Y-42017700D03*
X35628200Y-62102100D03*
X28637400Y-56594100D03*
X30196800Y-62139600D03*
%TO.N,/SENSE_B*%
X69734400Y-62797400D03*
X70685600Y-55973700D03*
X59224100Y-55801400D03*
X67570600Y-75141900D03*
X15933600Y-44758500D03*
X50916000Y-75116900D03*
X18024400Y-74241300D03*
X69388100Y-64000900D03*
%TO.N,/SENSE_HI_EN*%
X19523100Y-45855900D03*
X38466600Y-61300700D03*
X38272700Y-50419400D03*
X41922800Y-64010100D03*
%TO.N,/SENSE_LO_EN*%
X51566700Y-56879500D03*
X33910200Y-62204600D03*
X30409500Y-52475500D03*
X36978500Y-69187000D03*
X7186400Y-42395800D03*
X7188000Y-52162400D03*
%TO.N,/START_CANCEL_N*%
X62817400Y-70528200D03*
X60670800Y-59972200D03*
%TO.N,/STIM*%
X37338900Y-50334500D03*
X74390500Y-57895000D03*
X54097400Y-56991700D03*
X37936800Y-57920300D03*
X71269400Y-50315400D03*
X54673300Y-49103400D03*
X53436700Y-64786700D03*
%TO.N,/SWCLK*%
X79227100Y-67928200D03*
X80117900Y-71733000D03*
%TO.N,/SWDIO*%
X17969500Y-73365600D03*
X68407200Y-74443900D03*
X17605600Y-68773000D03*
X69028400Y-64818400D03*
%TD*%
D14*
%TO.N,/+3V3*%
X65573200Y-62783200D02*
X65573200Y-58496700D01*
X48003600Y-53840500D02*
X48003600Y-58643100D01*
X69612900Y-54822100D02*
X69612900Y-57879000D01*
X48003600Y-58643100D02*
X49916200Y-60555700D01*
X73661800Y-50773200D02*
X69612900Y-54822100D01*
X73661800Y-47132300D02*
X73834400Y-46959700D01*
X65624000Y-50455900D02*
X65624000Y-46752800D01*
X43396200Y-32566000D02*
X44906300Y-34076100D01*
X69612900Y-57879000D02*
X69297500Y-58194400D01*
X65573200Y-58496700D02*
X65611400Y-58458500D01*
X65611400Y-58458500D02*
X65611400Y-54091900D01*
X32602600Y-53266500D02*
X33864300Y-52004800D01*
X34204200Y-60766700D02*
X32602600Y-59165100D01*
X73661800Y-49600100D02*
X73661800Y-47132300D01*
X65624000Y-46752800D02*
X65289800Y-46418600D01*
X73661800Y-49600100D02*
X73661800Y-50773200D01*
X66687900Y-55584800D02*
X66687900Y-51519800D01*
X44906300Y-34076100D02*
X44906300Y-43326500D01*
X69297500Y-58194400D02*
X66687900Y-55584800D01*
X65611400Y-54091900D02*
X64958400Y-53438900D01*
X80599700Y-24700300D02*
X80599700Y-29803900D01*
X33864300Y-47875500D02*
X35307700Y-46432100D01*
X48003600Y-53840500D02*
X48003600Y-44224000D01*
X33864300Y-52004800D02*
X33864300Y-47875500D01*
X66687900Y-51519800D02*
X65624000Y-50455900D01*
X48003600Y-44224000D02*
X47106100Y-43326500D01*
X47106100Y-43326500D02*
X44906300Y-43326500D01*
X83500000Y-21800000D02*
X80599700Y-24700300D01*
X32602600Y-59165100D02*
X32602600Y-53266500D01*
X44906300Y-43326500D02*
X44906300Y-46101700D01*
%TO.N,/A:01*%
X31052600Y-26422900D02*
X31332700Y-26703000D01*
X39200000Y-9500000D02*
X38966200Y-9500000D01*
X31052600Y-17413600D02*
X31052600Y-26422900D01*
X38966200Y-9500000D02*
X31052600Y-17413600D01*
%TO.N,/A:01_NODE*%
X84000000Y-47700000D02*
X87309400Y-44390600D01*
X26390500Y-49329000D02*
X26947800Y-48771700D01*
X26239000Y-48062900D02*
X26239000Y-41821700D01*
X29482800Y-34822500D02*
X29482800Y-45924900D01*
X29482800Y-45924900D02*
X29638700Y-46080800D01*
X26239000Y-41821700D02*
X26538800Y-41521900D01*
X26538800Y-9693000D02*
X26538800Y-22623100D01*
X30257900Y-34047400D02*
X29482800Y-34822500D01*
X26538800Y-41521900D02*
X26538800Y-22623100D01*
X90704300Y-14506600D02*
X90704300Y-8684900D01*
X28743700Y-7488100D02*
X26538800Y-9693000D01*
X87309400Y-44390600D02*
X87309400Y-17901500D01*
X26390500Y-52479800D02*
X26390500Y-49329000D01*
X26947800Y-48771700D02*
X29638700Y-46080800D01*
X87309400Y-17901500D02*
X90704300Y-14506600D01*
X26947800Y-48771700D02*
X26239000Y-48062900D01*
X90704300Y-8684900D02*
X89384200Y-7364800D01*
%TO.N,/A:02_NODE*%
X26656200Y-56989400D02*
X26531000Y-57114600D01*
X28128900Y-18162900D02*
X28128900Y-19897500D01*
X27734500Y-49852300D02*
X27734500Y-59101300D01*
X31654300Y-22060900D02*
X31939500Y-22346100D01*
X31939500Y-22346100D02*
X31939500Y-29824400D01*
X21286900Y-37868500D02*
X21286900Y-54636100D01*
X29653900Y-47932900D02*
X27734500Y-49852300D01*
X31510800Y-30253100D02*
X31510800Y-35872200D01*
X28128900Y-19897500D02*
X30417200Y-22185800D01*
X19117900Y-35699500D02*
X21286900Y-37868500D01*
X19117900Y-24787800D02*
X19117900Y-35699500D01*
X26656200Y-53919000D02*
X26656200Y-56989400D01*
X21286900Y-54636100D02*
X24582000Y-57931200D01*
X31939500Y-29824400D02*
X31510800Y-30253100D01*
X19287400Y-24618300D02*
X19117900Y-24787800D01*
%TO.N,/A:03*%
X44735200Y-9500000D02*
X42980400Y-11254800D01*
X42980400Y-11753000D02*
X43304200Y-12076800D01*
X36268700Y-21913200D02*
X36268700Y-24055200D01*
X45200000Y-9500000D02*
X44735200Y-9500000D01*
X42980400Y-11254800D02*
X42980400Y-11753000D01*
X43304200Y-14877700D02*
X36268700Y-21913200D01*
X43304200Y-12076800D02*
X43304200Y-14877700D01*
%TO.N,/A:03_NODE*%
X9274400Y-54908200D02*
X9276000Y-54909800D01*
X28468100Y-38328100D02*
X28282700Y-38513500D01*
X28468100Y-25756400D02*
X28468100Y-38328100D01*
X9274400Y-47201000D02*
X9274400Y-54908200D01*
X30316300Y-23908200D02*
X28468100Y-25756400D01*
X28132500Y-46528500D02*
X26851900Y-47809100D01*
X28282700Y-38513500D02*
X28132500Y-38663700D01*
X28132500Y-38663700D02*
X28132500Y-46528500D01*
%TO.N,/A:04*%
X31743000Y-17588300D02*
X34049900Y-15281400D01*
X31743000Y-20376200D02*
X31743000Y-17588300D01*
%TO.N,/A:04_NODE*%
X31939000Y-47269300D02*
X31946600Y-47269300D01*
X34540700Y-44675200D02*
X34540700Y-43937400D01*
X31946600Y-47269300D02*
X34540700Y-44675200D01*
X36845000Y-25113500D02*
X36845000Y-37274300D01*
X34625400Y-40546700D02*
X37268800Y-37903300D01*
X29773300Y-49068700D02*
X29421100Y-49420900D01*
X37268800Y-37903300D02*
X37268800Y-37698100D01*
X29421100Y-49420900D02*
X29421100Y-55465000D01*
X35237300Y-18793300D02*
X34480500Y-18036500D01*
X34540700Y-43937400D02*
X34625400Y-43852700D01*
X35237300Y-22935800D02*
X35237300Y-18793300D01*
X36845000Y-37274300D02*
X37268800Y-37698100D01*
X34625400Y-43852700D02*
X34625400Y-40546700D01*
%TO.N,/A:05*%
X51200000Y-9500000D02*
X51200000Y-11002600D01*
X46044900Y-26722700D02*
X46120500Y-26798300D01*
X46044900Y-16157700D02*
X46044900Y-26722700D01*
X51200000Y-11002600D02*
X46044900Y-16157700D01*
%TO.N,/A:05_NODE*%
X35690100Y-14470600D02*
X38940500Y-11220200D01*
X28884500Y-43047300D02*
X28884500Y-33137600D01*
X31904700Y-57840800D02*
X31586400Y-58159100D01*
X7605400Y-24459600D02*
X7605400Y-11928400D01*
X43582100Y-11503900D02*
X43764800Y-11686600D01*
X43780400Y-18098200D02*
X43780400Y-23444700D01*
X7605400Y-11928400D02*
X12307600Y-7226200D01*
X28884500Y-33137600D02*
X30444900Y-31577200D01*
X43764800Y-11686600D02*
X43764800Y-15267900D01*
X40284200Y-8093200D02*
X40284200Y-10213400D01*
X38940500Y-11220200D02*
X39277400Y-11220200D01*
X35690100Y-15407800D02*
X35690100Y-14470600D01*
X40284200Y-10213400D02*
X39277400Y-11220200D01*
X32461400Y-18636500D02*
X35690100Y-15407800D01*
X43780400Y-23444700D02*
X42752600Y-24472500D01*
X38653800Y-6462800D02*
X40284200Y-8093200D01*
X9274400Y-57464800D02*
X8627700Y-56818100D01*
X43764800Y-15267900D02*
X42385800Y-16646900D01*
X8627700Y-56818100D02*
X8627700Y-25481900D01*
X8627700Y-25481900D02*
X7605400Y-24459600D01*
X31904700Y-53918800D02*
X31904700Y-57840800D01*
X32461400Y-30153300D02*
X32461400Y-18636500D01*
X28734200Y-43197600D02*
X28884500Y-43047300D01*
%TO.N,/A:06_NODE*%
X51479600Y-45786700D02*
X47067500Y-41374600D01*
X29915600Y-42656100D02*
X29915600Y-36409200D01*
X31328100Y-46549100D02*
X31639900Y-46237300D01*
X31777400Y-48000200D02*
X31328100Y-47550900D01*
X33716400Y-28199500D02*
X33716400Y-37487400D01*
X47067500Y-41374600D02*
X47067500Y-31293100D01*
X31639900Y-44380400D02*
X29915600Y-42656100D01*
X49221300Y-57927400D02*
X49221300Y-46139700D01*
X31639900Y-46237300D02*
X31639900Y-44380400D01*
X48831000Y-58317700D02*
X49221300Y-57927400D01*
X32343300Y-48000200D02*
X31777400Y-48000200D01*
X51573700Y-45786700D02*
X51479600Y-45786700D01*
X31328100Y-47550900D02*
X31328100Y-46549100D01*
X33716400Y-37487400D02*
X31300000Y-39903800D01*
X29915600Y-36409200D02*
X31046600Y-35278200D01*
X47067500Y-31293100D02*
X40095500Y-24321100D01*
X31300000Y-39903800D02*
X31300000Y-40221200D01*
X31046600Y-35278200D02*
X31046600Y-28170100D01*
X31046600Y-28170100D02*
X30943100Y-28066600D01*
%TO.N,/A:07_NODE*%
X52146100Y-45508200D02*
X52146100Y-25864200D01*
X30180000Y-49655000D02*
X30180000Y-51315700D01*
X31027200Y-48531200D02*
X30890500Y-48531200D01*
X31038100Y-45988000D02*
X30890500Y-46135600D01*
X31289600Y-52806100D02*
X31289600Y-56232100D01*
X31390300Y-52705400D02*
X31289600Y-52806100D01*
X30890500Y-46135600D02*
X30890500Y-48944500D01*
X30890500Y-48944500D02*
X30180000Y-49655000D01*
X52274700Y-55149400D02*
X52274700Y-45636800D01*
X52146100Y-25864200D02*
X53197600Y-24812700D01*
X32495900Y-44518100D02*
X32495900Y-45869100D01*
X52274700Y-45636800D02*
X52146100Y-45508200D01*
X32495900Y-45869100D02*
X32430300Y-45934700D01*
%TO.N,/A:08*%
X61312100Y-10612100D02*
X61312100Y-12903900D01*
X61312100Y-12903900D02*
X54322800Y-19893200D01*
X60200000Y-9500000D02*
X61312100Y-10612100D01*
%TO.N,/A:08_NODE*%
X36411800Y-56628000D02*
X35549400Y-57490400D01*
X49798400Y-42186500D02*
X48777200Y-42186500D01*
X35782700Y-48770400D02*
X37005800Y-47547300D01*
X36411800Y-49399500D02*
X36411800Y-56628000D01*
X51247700Y-40737200D02*
X49798400Y-42186500D01*
X37005800Y-47547300D02*
X37005800Y-42199500D01*
X56786400Y-16546100D02*
X51194900Y-22137600D01*
X35782700Y-48770400D02*
X36411800Y-49399500D01*
X51194900Y-22656700D02*
X51247700Y-22709500D01*
X51194900Y-22137600D02*
X51194900Y-22656700D01*
X51247700Y-22709500D02*
X51247700Y-40737200D01*
%TO.N,/A:09*%
X32983300Y-20575500D02*
X32983300Y-18682600D01*
X30537400Y-39784000D02*
X33063100Y-37258300D01*
X33063100Y-20655300D02*
X32983300Y-20575500D01*
X33063100Y-37258300D02*
X33063100Y-20655300D01*
X39165900Y-12500000D02*
X39200000Y-12500000D01*
X32983300Y-18682600D02*
X39165900Y-12500000D01*
%TO.N,/A:09_NODE*%
X33036500Y-39700900D02*
X33036600Y-39700900D01*
X31317600Y-51178700D02*
X31317600Y-50641500D01*
X33036600Y-39700900D02*
X33036600Y-42618800D01*
X32634500Y-51946500D02*
X32085400Y-51946500D01*
X32085400Y-51946500D02*
X31317600Y-51178700D01*
X33036600Y-42618800D02*
X34022500Y-43604700D01*
X35179300Y-45545700D02*
X33462600Y-47262400D01*
X33462600Y-51118400D02*
X32634500Y-51946500D01*
X33462600Y-47262400D02*
X33462600Y-51118400D01*
X32979300Y-39643700D02*
X33036500Y-39700900D01*
%TO.N,/A:10*%
X27492300Y-20249700D02*
X27140800Y-20601200D01*
X27140800Y-20601200D02*
X27140800Y-44046000D01*
X27140800Y-44046000D02*
X26851900Y-44334900D01*
%TO.N,/A:10_NODE*%
X33570800Y-55981200D02*
X33570800Y-57810600D01*
X26002800Y-56186100D02*
X25631100Y-56557800D01*
X24396000Y-47393400D02*
X24396000Y-42870900D01*
X25631100Y-56557800D02*
X24736600Y-56557800D01*
X36036500Y-46975300D02*
X35430600Y-47581200D01*
X35430600Y-47581200D02*
X34817500Y-48194300D01*
X36036500Y-41992500D02*
X36036500Y-46975300D01*
X34817500Y-54734500D02*
X35334300Y-54734500D01*
X24502600Y-47500000D02*
X24396000Y-47393400D01*
X24502600Y-47500000D02*
X24502600Y-54005400D01*
X34817500Y-54734500D02*
X33570800Y-55981200D01*
X26002800Y-55505600D02*
X26002800Y-56186100D01*
X24502600Y-54005400D02*
X26002800Y-55505600D01*
X34817500Y-48194300D02*
X34817500Y-54734500D01*
%TO.N,/A:11*%
X35839000Y-17373700D02*
X44764400Y-8448300D01*
X46251700Y-9064300D02*
X46251700Y-11448300D01*
X35983600Y-36098300D02*
X36178100Y-35903800D01*
X35839000Y-23185000D02*
X35839000Y-17373700D01*
X35667000Y-23357000D02*
X35839000Y-23185000D01*
X45635700Y-8448300D02*
X46251700Y-9064300D01*
X36178100Y-35903800D02*
X36178100Y-33139200D01*
X46251700Y-11448300D02*
X45200000Y-12500000D01*
X35667000Y-32628100D02*
X35667000Y-23357000D01*
X44764400Y-8448300D02*
X45635700Y-8448300D01*
X36178100Y-33139200D02*
X35667000Y-32628100D01*
%TO.N,/A:11_NODE*%
X35426800Y-38894400D02*
X35381800Y-38849400D01*
X35381800Y-38849400D02*
X35381800Y-34588300D01*
X41223400Y-40243400D02*
X41566800Y-39900000D01*
X39656300Y-47281600D02*
X39656300Y-43991900D01*
X38995900Y-40243400D02*
X41223400Y-40243400D01*
X35381800Y-34588300D02*
X35542000Y-34428100D01*
X38643300Y-40596000D02*
X38995900Y-40243400D01*
X39656300Y-43991900D02*
X38643300Y-42978900D01*
X38643300Y-42978900D02*
X38643300Y-40596000D01*
X39276200Y-47661700D02*
X38683200Y-47661700D01*
X39276200Y-47661700D02*
X39656300Y-47281600D01*
X39276200Y-51468300D02*
X39276200Y-47661700D01*
X38683200Y-47661700D02*
X38681600Y-47660100D01*
%TO.N,/A:12*%
X37633200Y-23066800D02*
X48200000Y-12500000D01*
X37633200Y-36679200D02*
X37633200Y-23066800D01*
%TO.N,/A:12_NODE*%
X45155500Y-47771400D02*
X44040700Y-46656600D01*
X32377400Y-39394400D02*
X32730000Y-39041800D01*
X44040700Y-46656600D02*
X44040700Y-38577200D01*
X44040700Y-34453800D02*
X44040700Y-38577200D01*
X32830000Y-39041800D02*
X34879300Y-36992500D01*
X41896700Y-32309800D02*
X44040700Y-34453800D01*
X34879300Y-33822700D02*
X35253600Y-33448400D01*
X31491300Y-41765600D02*
X32377400Y-40879500D01*
X45155500Y-51578600D02*
X45155500Y-47771400D01*
X44735000Y-51999100D02*
X45155500Y-51578600D01*
X32377400Y-40879500D02*
X32377400Y-39394400D01*
X34879300Y-36992500D02*
X34879300Y-33822700D01*
X32730000Y-39041800D02*
X32830000Y-39041800D01*
%TO.N,/A:13*%
X47315000Y-28741400D02*
X47315000Y-16385000D01*
X47315000Y-16385000D02*
X51200000Y-12500000D01*
%TO.N,/A:13_NODE*%
X38971600Y-45594400D02*
X38971600Y-43889800D01*
X41073700Y-35224800D02*
X37324500Y-38974000D01*
X38971600Y-43889800D02*
X38109500Y-43027700D01*
X38109500Y-43027700D02*
X38109400Y-43027700D01*
X38109400Y-43027700D02*
X38109400Y-39758900D01*
X38109400Y-39758900D02*
X37324500Y-38974000D01*
X41073700Y-28448400D02*
X41073700Y-35224800D01*
%TO.N,/A:14*%
X48286700Y-38697300D02*
X48286700Y-18413300D01*
X48286700Y-18413300D02*
X54200000Y-12500000D01*
X48850000Y-39260600D02*
X48286700Y-38697300D01*
%TO.N,/A:14_NODE*%
X40299100Y-54452300D02*
X40299100Y-50124500D01*
X42170000Y-39652300D02*
X41816000Y-39298300D01*
X41619900Y-39298300D02*
X39090800Y-39298300D01*
X40853400Y-48298000D02*
X41071600Y-48079800D01*
X40299100Y-50124500D02*
X40853400Y-49570200D01*
X40853400Y-49570200D02*
X41673400Y-49570200D01*
X40898500Y-55051700D02*
X40299100Y-54452300D01*
X41619900Y-39298300D02*
X41619900Y-35951300D01*
X41816000Y-39298300D02*
X41619900Y-39298300D01*
X42170000Y-49073600D02*
X42170000Y-39652300D01*
X41673400Y-49570200D02*
X42170000Y-49073600D01*
X40853400Y-49570200D02*
X40853400Y-48298000D01*
X39090800Y-39298300D02*
X38747500Y-39641600D01*
%TO.N,/A:15*%
X48929700Y-35694500D02*
X48929700Y-20770300D01*
X48929700Y-20770300D02*
X57200000Y-12500000D01*
%TO.N,/A:15_NODE*%
X46223800Y-41921600D02*
X46300400Y-41921600D01*
X46300400Y-41921600D02*
X51242600Y-46863800D01*
X46223800Y-34850500D02*
X46283300Y-34791000D01*
X46223800Y-41921600D02*
X46223800Y-38380500D01*
X46223800Y-38380500D02*
X46223800Y-34850500D01*
X51242600Y-46863800D02*
X51242600Y-54119100D01*
X45824800Y-41921600D02*
X46223800Y-41921600D01*
%TO.N,/A:16*%
X50027000Y-22454700D02*
X50027000Y-35480500D01*
X60200000Y-12500000D02*
X59981700Y-12500000D01*
X50027000Y-35480500D02*
X50093900Y-35547400D01*
X59981700Y-12500000D02*
X50027000Y-22454700D01*
%TO.N,/A:16_NODE*%
X41457300Y-48912100D02*
X41673300Y-48696100D01*
X40278400Y-47466000D02*
X39886000Y-47858400D01*
X41361100Y-47466000D02*
X40278400Y-47466000D01*
X39886000Y-55960900D02*
X39626900Y-56220000D01*
X41673300Y-47778200D02*
X41361100Y-47466000D01*
X39886000Y-47858400D02*
X39886000Y-55960900D01*
X50578700Y-40475000D02*
X50723200Y-40330500D01*
X41673300Y-48696100D02*
X41673300Y-47778200D01*
X40278400Y-47466000D02*
X40278400Y-41878500D01*
X50723200Y-32667700D02*
X50628700Y-32573200D01*
X50723200Y-40330500D02*
X50723200Y-32667700D01*
X40278400Y-41878500D02*
X39245000Y-40845100D01*
%TO.N,/ADC_REF_1V8*%
X44079400Y-69613800D02*
X44079400Y-66623000D01*
X44079500Y-69613800D02*
X44079400Y-69613800D01*
X45085600Y-71921100D02*
X45085600Y-70619900D01*
X88254300Y-57624700D02*
X85898400Y-59980600D01*
X89000000Y-22900000D02*
X88254300Y-23645700D01*
X17699300Y-67148800D02*
X17396600Y-66846100D01*
X17396600Y-66846100D02*
X17396600Y-36479400D01*
X88254300Y-23645700D02*
X88254300Y-57624700D01*
X45085600Y-70619900D02*
X44079500Y-69613800D01*
X17396600Y-36479400D02*
X18348300Y-35527700D01*
%TO.N,/B:01*%
X58466800Y-19645900D02*
X68600000Y-9512700D01*
X68600000Y-9512700D02*
X68600000Y-9500000D01*
X58466800Y-24624700D02*
X58466800Y-19645900D01*
%TO.N,/B:01_NODE*%
X73309600Y-66483800D02*
X70807400Y-66483800D01*
X53613800Y-43135000D02*
X55900000Y-40848800D01*
X55898000Y-26046800D02*
X55898000Y-40846800D01*
X55898000Y-40846800D02*
X55900000Y-40848800D01*
X64757800Y-62563200D02*
X64757800Y-59173800D01*
X83500000Y-51500000D02*
X80034300Y-54965700D01*
X55002400Y-25151200D02*
X55898000Y-26046800D01*
X53613800Y-48832900D02*
X53613800Y-43135000D01*
X53545600Y-48901100D02*
X53545600Y-55006900D01*
X80034300Y-54965700D02*
X80034300Y-59759100D01*
X80034300Y-59759100D02*
X73309600Y-66483800D01*
X64757800Y-59173800D02*
X61771900Y-56187900D01*
X53613800Y-48832900D02*
X53545600Y-48901100D01*
%TO.N,/B:02*%
X69745800Y-13930700D02*
X65686100Y-17990400D01*
X69745800Y-11354200D02*
X69745800Y-13930700D01*
X71600000Y-9500000D02*
X69745800Y-11354200D01*
%TO.N,/B:02_NODE*%
X58804700Y-53785600D02*
X58980800Y-53961700D01*
X58982000Y-47062300D02*
X58804700Y-47239600D01*
X58627200Y-46707500D02*
X58627200Y-42967600D01*
X58804700Y-47239600D02*
X58804700Y-53785600D01*
X57821000Y-42161400D02*
X57821000Y-19440800D01*
X57821000Y-19440800D02*
X59462600Y-17799200D01*
X59009000Y-47062300D02*
X59051700Y-47019600D01*
X58627200Y-42967600D02*
X57821000Y-42161400D01*
X58982000Y-47062300D02*
X59009000Y-47062300D01*
X58982000Y-47062300D02*
X58627200Y-46707500D01*
%TO.N,/B:03*%
X62874500Y-21618200D02*
X64116900Y-21618200D01*
X64116900Y-21618200D02*
X73100000Y-12635100D01*
X73100000Y-12635100D02*
X73100000Y-11000000D01*
X73100000Y-11000000D02*
X74600000Y-9500000D01*
%TO.N,/B:03_NODE*%
X57846000Y-50067200D02*
X57402700Y-50510500D01*
X55924500Y-42327700D02*
X56113900Y-42138300D01*
X57101400Y-26018600D02*
X56960800Y-25878000D01*
X57007500Y-42138300D02*
X57101400Y-42044400D01*
X56038500Y-47621900D02*
X56096600Y-47563800D01*
X56096600Y-42499800D02*
X55924500Y-42327700D01*
X57101400Y-42044400D02*
X57101400Y-26018600D01*
X56113900Y-42138300D02*
X57007500Y-42138300D01*
X56096600Y-47563800D02*
X56096600Y-42499800D01*
X57007500Y-42138300D02*
X57846000Y-42976800D01*
X57846000Y-42976800D02*
X57846000Y-50067200D01*
%TO.N,/B:04*%
X68932900Y-18795500D02*
X68932900Y-23582900D01*
X71197500Y-16530900D02*
X71065000Y-16530900D01*
X77600000Y-10999900D02*
X72854700Y-15745200D01*
X71065000Y-16530900D02*
X70712400Y-16883500D01*
X71983200Y-15745200D02*
X71197500Y-16530900D01*
X70712400Y-16883500D02*
X70712400Y-17016000D01*
X70712400Y-17016000D02*
X68932900Y-18795500D01*
X77600000Y-9500000D02*
X77600000Y-10999900D01*
X72854700Y-15745200D02*
X71983200Y-15745200D01*
%TO.N,/B:04_NODE*%
X57206500Y-47809100D02*
X56401400Y-48614200D01*
X64105300Y-40059300D02*
X64105300Y-42930400D01*
X64105300Y-42930400D02*
X63939600Y-43096100D01*
X62782800Y-41463100D02*
X62552000Y-41232300D01*
X62552000Y-41232300D02*
X62552000Y-29275000D01*
X56401400Y-48614200D02*
X55892500Y-48614200D01*
X56401400Y-53885800D02*
X56028700Y-54258500D01*
X62552000Y-29275000D02*
X66127000Y-25700000D01*
X56401400Y-48614200D02*
X56401400Y-53885800D01*
X57206500Y-43192200D02*
X57206500Y-47809100D01*
X63962900Y-39916900D02*
X64105300Y-40059300D01*
%TO.N,/B:05*%
X73189500Y-18410300D02*
X73189500Y-22765300D01*
X80600000Y-10999800D02*
X73189500Y-18410300D01*
X80600000Y-9500000D02*
X80600000Y-10999800D01*
%TO.N,/B:05_NODE*%
X60482000Y-47138100D02*
X60482000Y-42591400D01*
X60482000Y-47138100D02*
X61281900Y-47938000D01*
X56330500Y-18960400D02*
X61475200Y-13815700D01*
X70495300Y-17951400D02*
X71314100Y-17132600D01*
X56330500Y-38523300D02*
X56330500Y-18960400D01*
X61281900Y-53554100D02*
X61117000Y-53719000D01*
X56499700Y-38692500D02*
X56330500Y-38523300D01*
X68785500Y-16098700D02*
X70347500Y-14536700D01*
X70495300Y-20183500D02*
X70495300Y-17951400D01*
X70347500Y-14536700D02*
X70347500Y-12586300D01*
X61281900Y-47938000D02*
X61281900Y-53554100D01*
X60482000Y-42591400D02*
X59618100Y-41727500D01*
%TO.N,/B:06*%
X78243000Y-15106600D02*
X77890400Y-15459200D01*
X77890400Y-15459200D02*
X77890400Y-15955800D01*
X78738000Y-15106600D02*
X78243000Y-15106600D01*
X79892700Y-13951900D02*
X78738000Y-15106600D01*
X77890400Y-15955800D02*
X75747600Y-18098600D01*
X75747600Y-22300500D02*
X76024300Y-22577200D01*
X75747600Y-18098600D02*
X75747600Y-22300500D01*
%TO.N,/B:06_NODE*%
X62587800Y-53677900D02*
X61642500Y-54623200D01*
X61102100Y-54623200D02*
X59809100Y-53330200D01*
X61917600Y-39195700D02*
X61917600Y-44761700D01*
X61642500Y-54623200D02*
X61102100Y-54623200D01*
X61917600Y-39195700D02*
X60072100Y-39195700D01*
X61917600Y-29058600D02*
X61917600Y-39195700D01*
X60008100Y-50953900D02*
X60008100Y-49180000D01*
X62587800Y-45431900D02*
X62587800Y-53677900D01*
X61917600Y-44761700D02*
X62587800Y-45431900D01*
X59809100Y-53330200D02*
X59809100Y-51152900D01*
X66452200Y-24524000D02*
X61917600Y-29058600D01*
X60008100Y-49180000D02*
X59809100Y-48981000D01*
X66485700Y-24524000D02*
X66452200Y-24524000D01*
X59809100Y-51152900D02*
X60008100Y-50953900D01*
%TO.N,/B:07*%
X80494400Y-14105600D02*
X85100000Y-9500000D01*
X85100000Y-9500000D02*
X86600000Y-9500000D01*
X78787700Y-22935800D02*
X78789200Y-22934300D01*
X78789200Y-22934300D02*
X78789200Y-16262100D01*
X78789200Y-16262100D02*
X80494400Y-14556900D01*
X80494400Y-14556900D02*
X80494400Y-14105600D01*
%TO.N,/B:07_NODE*%
X59489600Y-42881800D02*
X58961400Y-42353600D01*
X59809100Y-47682600D02*
X60680200Y-48553700D01*
X64802000Y-18772600D02*
X66038600Y-18772600D01*
X60680200Y-51617500D02*
X60463100Y-51834600D01*
X60993000Y-22581600D02*
X64802000Y-18772600D01*
X58961400Y-39201800D02*
X60993000Y-37170200D01*
X58961400Y-42353600D02*
X58961400Y-39201800D01*
X60993000Y-37170200D02*
X60993000Y-22581600D01*
X59489600Y-43351100D02*
X59809100Y-43670600D01*
X59489600Y-43351100D02*
X59489600Y-42881800D01*
X59809100Y-43670600D02*
X59809100Y-47682600D01*
X60680200Y-48553700D02*
X60680200Y-51617500D01*
%TO.N,/B:08*%
X78492100Y-15708300D02*
X78387500Y-15812900D01*
X78387500Y-15812900D02*
X78387500Y-18508700D01*
X78387500Y-18508700D02*
X76349300Y-20546900D01*
%TO.N,/B:08_NODE*%
X63337900Y-42395900D02*
X62938800Y-42395900D01*
X63337900Y-50208600D02*
X63355400Y-50226100D01*
X63646500Y-40451300D02*
X63646500Y-42087300D01*
X64671000Y-38281900D02*
X64671000Y-38452100D01*
X71298500Y-18679500D02*
X71298500Y-31200600D01*
X63337900Y-42395900D02*
X63337900Y-50208600D01*
X63829900Y-39293200D02*
X63713800Y-39293200D01*
X64671000Y-38452100D02*
X63829900Y-39293200D01*
X63355400Y-50226100D02*
X63355400Y-54518100D01*
X65279500Y-37673400D02*
X64671000Y-38281900D01*
X63361200Y-39645800D02*
X63361200Y-40166000D01*
X67491000Y-35008100D02*
X67491000Y-35980400D01*
X63361200Y-40166000D02*
X63646500Y-40451300D01*
X63355400Y-54518100D02*
X64754900Y-55917600D01*
X67491000Y-35980400D02*
X65798000Y-37673400D01*
X71310100Y-18667900D02*
X71298500Y-18679500D01*
X65798000Y-37673400D02*
X65279500Y-37673400D01*
X71298500Y-31200600D02*
X67491000Y-35008100D01*
X63646500Y-42087300D02*
X63337900Y-42395900D01*
X63713800Y-39293200D02*
X63361200Y-39645800D01*
%TO.N,/B:09*%
X60160100Y-36534200D02*
X60160100Y-20939900D01*
X60160100Y-20939900D02*
X68600000Y-12500000D01*
%TO.N,/B:09_NODE*%
X74478000Y-40320500D02*
X75342200Y-41184700D01*
X67849300Y-45017100D02*
X69056200Y-43810200D01*
X74478000Y-39492500D02*
X74478000Y-40320500D01*
X75342200Y-41184700D02*
X76817000Y-41184700D01*
X69056200Y-43810200D02*
X69056200Y-36164100D01*
X68936100Y-36044000D02*
X71900200Y-33079900D01*
X63768400Y-35795300D02*
X65134000Y-34429700D01*
X74535300Y-30535600D02*
X74535300Y-39435200D01*
X69056200Y-36164100D02*
X68936100Y-36044000D01*
X71900200Y-33079900D02*
X71900200Y-29452000D01*
X68089400Y-55895000D02*
X68089400Y-53514300D01*
X68799200Y-56604800D02*
X68089400Y-55895000D01*
X74535300Y-39435200D02*
X74478000Y-39492500D01*
X76817000Y-41184700D02*
X79697200Y-44064900D01*
X63768400Y-37579500D02*
X63768400Y-35795300D01*
X67849300Y-46687000D02*
X67849300Y-45017100D01*
X73494400Y-29494700D02*
X74535300Y-30535600D01*
X68936100Y-36044000D02*
X68896100Y-36004000D01*
%TO.N,/B:10*%
X58459800Y-38699800D02*
X58459900Y-38699800D01*
X59559900Y-19997400D02*
X64982400Y-14574900D01*
X59559900Y-30739200D02*
X59559900Y-19997400D01*
X58459900Y-38699800D02*
X58459900Y-31839200D01*
X58459900Y-31839200D02*
X59559900Y-30739200D01*
%TO.N,/B:10_NODE*%
X64319800Y-48282500D02*
X64319800Y-54209400D01*
X64684000Y-47365500D02*
X64960400Y-47641900D01*
X65900600Y-42080700D02*
X64684000Y-43297300D01*
X65694900Y-38676800D02*
X65900600Y-38882500D01*
X64960400Y-47641900D02*
X64319800Y-48282500D01*
X65900600Y-38882500D02*
X65900600Y-42080700D01*
X64684000Y-43297300D02*
X64684000Y-47365500D01*
X64319800Y-54209400D02*
X64741200Y-54630800D01*
%TO.N,/B:11*%
X67089300Y-19938600D02*
X67089300Y-35779200D01*
X65388500Y-36236000D02*
X64996900Y-35844400D01*
X74600000Y-12500000D02*
X74527900Y-12500000D01*
X66632500Y-36236000D02*
X65388500Y-36236000D01*
X74527900Y-12500000D02*
X67089300Y-19938600D01*
X67089300Y-35779200D02*
X66632500Y-36236000D01*
%TO.N,/B:11_NODE*%
X67594700Y-50472200D02*
X67594700Y-50470100D01*
X69496700Y-50689300D02*
X69496700Y-48388200D01*
X69003300Y-52165800D02*
X69003300Y-54838600D01*
X63209200Y-32807200D02*
X63166600Y-32849800D01*
X66485400Y-49360800D02*
X66485400Y-39644100D01*
X68511800Y-51674200D02*
X69003300Y-52165800D01*
X63166600Y-32849800D02*
X63166600Y-37936200D01*
X67594700Y-50470100D02*
X66485400Y-49360800D01*
X67696600Y-50859100D02*
X67696600Y-50574100D01*
X68511800Y-51674200D02*
X69496700Y-50689300D01*
X66485400Y-39644100D02*
X66525100Y-39604400D01*
X68511800Y-51674200D02*
X67696600Y-50859100D01*
X67696600Y-50574100D02*
X67594700Y-50472200D01*
X63166600Y-37936200D02*
X63737500Y-38507100D01*
%TO.N,/B:12*%
X72536500Y-17563500D02*
X77600000Y-12500000D01*
X76694000Y-37422500D02*
X77904100Y-38632600D01*
X76694000Y-29906400D02*
X76694000Y-37422500D01*
X72536500Y-27122500D02*
X72536500Y-17563500D01*
X74824800Y-29410800D02*
X72536500Y-27122500D01*
%TO.N,/B:12_NODE*%
X65264300Y-29940800D02*
X66433500Y-31110000D01*
X67087200Y-42758800D02*
X67087200Y-47851000D01*
X67552200Y-38595100D02*
X67552200Y-42293800D01*
X64971900Y-51891200D02*
X66140600Y-53059900D01*
X66140600Y-56198500D02*
X66545100Y-56603000D01*
X66140600Y-53059900D02*
X66140600Y-56198500D01*
X64971900Y-49102600D02*
X64971900Y-51891200D01*
X66433500Y-31110000D02*
X66433500Y-35584100D01*
X67552200Y-42293800D02*
X67087200Y-42758800D01*
X67087200Y-47851000D02*
X67861200Y-48625000D01*
%TO.N,/B:13*%
X75426500Y-39712400D02*
X75085400Y-40053500D01*
X80600000Y-12500000D02*
X80281600Y-12500000D01*
X75426500Y-29161600D02*
X75426500Y-39712400D01*
X80281600Y-12500000D02*
X75099600Y-17682000D01*
X75099600Y-28834700D02*
X75426500Y-29161600D01*
X75099600Y-17682000D02*
X75099600Y-28834700D01*
%TO.N,/B:13_NODE*%
X73089800Y-42958500D02*
X74833200Y-44701900D01*
X74265800Y-49313200D02*
X74265800Y-51318700D01*
X67042100Y-37129200D02*
X68454500Y-38541600D01*
X74833200Y-44701900D02*
X75905500Y-44701900D01*
X69420900Y-34628100D02*
X69422500Y-34628100D01*
X65445800Y-38075100D02*
X66096200Y-38075100D01*
X67042100Y-37006900D02*
X69420900Y-34628100D01*
X74265800Y-47803100D02*
X74223200Y-47845700D01*
X67042100Y-37129200D02*
X67042100Y-37006900D01*
X74265800Y-51318700D02*
X70868400Y-54716100D01*
X65093200Y-38427700D02*
X65445800Y-38075100D01*
X65271200Y-40114500D02*
X65093200Y-39936500D01*
X74223200Y-49270600D02*
X74265800Y-49313200D01*
X66096200Y-38075100D02*
X67042100Y-37129200D01*
X65093200Y-39936500D02*
X65093200Y-38427700D01*
X74223200Y-47845700D02*
X74223200Y-49270600D01*
X68454500Y-38541600D02*
X68454500Y-42379300D01*
%TO.N,/B:14*%
X79389400Y-23185000D02*
X79389400Y-16710600D01*
X79164900Y-23409500D02*
X79389400Y-23185000D01*
X79260900Y-40480700D02*
X79164900Y-40384700D01*
X79389400Y-16710600D02*
X83600000Y-12500000D01*
X79164900Y-40384700D02*
X79164900Y-23409500D01*
%TO.N,/B:14_NODE*%
X74824900Y-53282700D02*
X73559700Y-54547900D01*
X73377100Y-41998300D02*
X73551400Y-41824000D01*
X73899600Y-34057200D02*
X73899700Y-34057200D01*
X73899600Y-36340600D02*
X73899600Y-34057200D01*
X73551400Y-36688800D02*
X73899600Y-36340600D01*
X73551400Y-41824000D02*
X73551400Y-36688800D01*
X73551400Y-41824000D02*
X76139200Y-41824000D01*
X76139200Y-41824000D02*
X78926600Y-44611400D01*
X71009600Y-47893500D02*
X71009600Y-44187900D01*
X73199600Y-41998300D02*
X73377100Y-41998300D01*
X74824900Y-49021500D02*
X74824900Y-53282700D01*
X73199200Y-41998300D02*
X73199600Y-41998300D01*
X71009600Y-44187900D02*
X73199200Y-41998300D01*
%TO.N,/B:15*%
X86600000Y-12500000D02*
X79800000Y-19300000D01*
X79800000Y-19300000D02*
X79800000Y-35760600D01*
%TO.N,/B:15_NODE*%
X70159800Y-47430900D02*
X70159800Y-53175500D01*
X69851400Y-36285100D02*
X73239500Y-32897000D01*
X69644000Y-46915100D02*
X70159800Y-47430900D01*
X69644000Y-40711000D02*
X69644000Y-46915100D01*
X69851400Y-40503600D02*
X69644000Y-40711000D01*
X70159800Y-53175500D02*
X69905700Y-53429600D01*
X69851400Y-40503600D02*
X69851400Y-36285100D01*
%TO.N,/B:16*%
X82492500Y-35309400D02*
X82492500Y-30377800D01*
X86751700Y-26118600D02*
X86751700Y-15348300D01*
X82492500Y-30377800D02*
X86751700Y-26118600D01*
X86751700Y-15348300D02*
X89600000Y-12500000D01*
%TO.N,/B:16_NODE*%
X85346100Y-39264100D02*
X85444500Y-39362500D01*
X85346100Y-33025300D02*
X85346100Y-39264100D01*
%TO.N,/BIAS*%
X45565100Y-32049900D02*
X45565100Y-36500000D01*
X27866400Y-29184200D02*
X27566200Y-29484400D01*
X38661300Y-27829000D02*
X41344200Y-27829000D01*
X27566200Y-29484400D02*
X27566200Y-46179300D01*
X28212900Y-21056100D02*
X27866400Y-21402600D01*
X53994500Y-28605300D02*
X55060400Y-29671200D01*
X78509100Y-41395500D02*
X78509100Y-28820300D01*
X52754300Y-41734900D02*
X52877600Y-41858200D01*
X38624200Y-24906900D02*
X38661300Y-24944000D01*
X41344200Y-27829000D02*
X45565100Y-32049900D01*
X78509100Y-28820300D02*
X78430200Y-28741400D01*
X78912400Y-41798800D02*
X78509100Y-41395500D01*
X52877600Y-41858200D02*
X52877600Y-63881600D01*
X27866400Y-21402600D02*
X27866400Y-29184200D01*
X38661300Y-36689600D02*
X38661300Y-27829000D01*
X53994500Y-21426700D02*
X53994500Y-28605300D01*
X52754300Y-31977300D02*
X55060400Y-29671200D01*
X84179000Y-19638300D02*
X84805700Y-20265000D01*
X52754300Y-41734900D02*
X52754300Y-31977300D01*
X52877600Y-63881600D02*
X50917600Y-65841600D01*
X84805700Y-20265000D02*
X84805700Y-22521900D01*
X82019200Y-25308400D02*
X82019200Y-28290200D01*
X38661300Y-24944000D02*
X38661300Y-27829000D01*
X84805700Y-22521900D02*
X82019200Y-25308400D01*
X27566200Y-46179300D02*
X26851900Y-46893600D01*
%TO.N,/DRV_A_HI_EN*%
X33292900Y-67405800D02*
X39712500Y-67405800D01*
X39712500Y-67405800D02*
X41111000Y-66007300D01*
X46174300Y-51726000D02*
X46174300Y-61703100D01*
X10103200Y-34480000D02*
X10103200Y-58669800D01*
X10103200Y-58669800D02*
X13018400Y-61585000D01*
X46174300Y-61703100D02*
X44094200Y-63783200D01*
X31565600Y-64846100D02*
X31565600Y-66193400D01*
X27698200Y-60978700D02*
X31565600Y-64846100D01*
%TO.N,/DRV_A_LO_EN*%
X84190400Y-27741100D02*
X80500000Y-31431500D01*
X87159300Y-8097400D02*
X87657100Y-8595200D01*
X27257900Y-57238600D02*
X27257900Y-53669800D01*
X85920300Y-14694100D02*
X85920300Y-22893500D01*
X87657100Y-8595200D02*
X87657100Y-12957300D01*
X25129600Y-9691000D02*
X25129600Y-29389400D01*
X26905400Y-53317300D02*
X26366500Y-53317300D01*
X25180500Y-29440300D02*
X25108100Y-29512700D01*
X25108100Y-45559500D02*
X25099200Y-45559500D01*
X25108100Y-29512700D02*
X25108100Y-45559500D01*
X84190400Y-24623400D02*
X84190400Y-27741100D01*
X25108100Y-52058900D02*
X25108100Y-45559500D01*
X80500000Y-31431500D02*
X80500000Y-41300000D01*
X25129600Y-29389400D02*
X25180500Y-29440300D01*
X85920300Y-22893500D02*
X84190400Y-24623400D01*
X27257900Y-53669800D02*
X26905400Y-53317300D01*
X27095000Y-57401500D02*
X27257900Y-57238600D01*
X26366500Y-53317300D02*
X25108100Y-52058900D01*
X27315200Y-63061600D02*
X27095000Y-62841400D01*
X27095000Y-62841400D02*
X27095000Y-57401500D01*
X27594400Y-7226200D02*
X25129600Y-9691000D01*
X87657100Y-12957300D02*
X85920300Y-14694100D01*
%TO.N,/DRV_B_HI_EN*%
X73856900Y-30708000D02*
X73856900Y-33188700D01*
X26117100Y-69766900D02*
X27782800Y-68101200D01*
X62576800Y-14510400D02*
X62576800Y-1620000D01*
X72892700Y-29526800D02*
X72892700Y-29743800D01*
X12600000Y-38163000D02*
X13254400Y-38163000D01*
X72079800Y-16499400D02*
X72079800Y-28713900D01*
X16743500Y-41652100D02*
X16743500Y-69624600D01*
X70510700Y-44330700D02*
X70245700Y-44595700D01*
X27782800Y-68101200D02*
X34385500Y-68101200D01*
X72232300Y-16346900D02*
X72079800Y-16499400D01*
X62032400Y-15054800D02*
X62576800Y-14510400D01*
X40182500Y-67999400D02*
X41281600Y-66900300D01*
X72079800Y-28713900D02*
X72892700Y-29526800D01*
X13254400Y-4299200D02*
X13254400Y-38163000D01*
X34487300Y-67999400D02*
X40182500Y-67999400D01*
X34385500Y-68101200D02*
X34487300Y-67999400D01*
X15933600Y-1620000D02*
X13254400Y-4299200D01*
X26117100Y-69862000D02*
X26117100Y-69766900D01*
X11298000Y-39465000D02*
X12600000Y-38163000D01*
X70510700Y-36534900D02*
X70510700Y-44330700D01*
X73856900Y-33188700D02*
X70510700Y-36534900D01*
X72892700Y-29743800D02*
X73856900Y-30708000D01*
X13254400Y-38163000D02*
X16743500Y-41652100D01*
%TO.N,/DRV_B_LO_EN*%
X47103700Y-62075500D02*
X43317900Y-65861300D01*
X18850400Y-58746600D02*
X18850400Y-36534200D01*
X47103700Y-47973100D02*
X47103700Y-62075500D01*
X43317900Y-65861300D02*
X43317900Y-66344900D01*
X24067700Y-63963900D02*
X18850400Y-58746600D01*
X43317900Y-66344900D02*
X41177500Y-68485300D01*
X36191300Y-68485300D02*
X36075400Y-68601200D01*
X41177500Y-68485300D02*
X36191300Y-68485300D01*
%TO.N,/FAULT_LED*%
X80500000Y-47900000D02*
X77152800Y-51247200D01*
X77152800Y-51247200D02*
X77152800Y-61720900D01*
%TO.N,/MUX_A0*%
X66055500Y-49498900D02*
X67193000Y-50636400D01*
X55494900Y-43357400D02*
X55288300Y-43564000D01*
X42916800Y-71201000D02*
X43866300Y-70251500D01*
X25827600Y-41394900D02*
X25827600Y-21325000D01*
X52190100Y-63567300D02*
X49432900Y-66324500D01*
X38800000Y-69087000D02*
X40914000Y-71201000D01*
X35986200Y-55355800D02*
X35704700Y-55637300D01*
X65291800Y-44467900D02*
X66055500Y-45231600D01*
X35453600Y-50376000D02*
X35986200Y-50908600D01*
X51438000Y-55655700D02*
X52190100Y-56407800D01*
X40914000Y-71201000D02*
X42916800Y-71201000D01*
X52190100Y-56407800D02*
X52190100Y-63567300D01*
X25709800Y-41500000D02*
X25722500Y-41500000D01*
X55288300Y-43564000D02*
X55288300Y-44970400D01*
X25722500Y-41500000D02*
X25827600Y-41394900D01*
X67193000Y-50636400D02*
X67193000Y-51838500D01*
X49432900Y-66324500D02*
X49432900Y-68830800D01*
X55288300Y-44970400D02*
X55288300Y-49806300D01*
X55288300Y-49806300D02*
X55751100Y-50269100D01*
X66055500Y-45231600D02*
X66055500Y-49498900D01*
X67193000Y-51838500D02*
X67843600Y-52489100D01*
X25722500Y-41500000D02*
X25722500Y-51445800D01*
X25827600Y-21325000D02*
X25759700Y-21257100D01*
X35986200Y-50908600D02*
X35986200Y-55355800D01*
%TO.N,/MUX_A1*%
X37657600Y-43426700D02*
X37883500Y-43652600D01*
X44984200Y-52600800D02*
X41910600Y-52600800D01*
X46068300Y-72787400D02*
X45085600Y-73770100D01*
X35142400Y-42000200D02*
X35781300Y-41361300D01*
X37657600Y-41922800D02*
X37657600Y-43426700D01*
X72743300Y-50463200D02*
X72743300Y-47197600D01*
X15333400Y-72425700D02*
X17805700Y-74898000D01*
X10835100Y-39077100D02*
X10696300Y-39215900D01*
X32945000Y-46929200D02*
X35142400Y-44731800D01*
X35781300Y-41361300D02*
X37096100Y-41361300D01*
X46023000Y-47460400D02*
X45572600Y-47910800D01*
X45572600Y-47910800D02*
X45572600Y-52012400D01*
X17805700Y-74898000D02*
X18600300Y-74898000D01*
X46863900Y-46471300D02*
X46863900Y-43935200D01*
X32375400Y-51344700D02*
X32945000Y-50775100D01*
X10696300Y-39215900D02*
X10696300Y-58131300D01*
X8210300Y-23981700D02*
X10835100Y-26606500D01*
X10835100Y-26606500D02*
X10835100Y-39077100D01*
X46863900Y-43935200D02*
X46856900Y-43928200D01*
X72743200Y-50463200D02*
X72743300Y-50463200D01*
X32945000Y-50775100D02*
X32945000Y-46929200D01*
X37096100Y-41361300D02*
X37657600Y-41922800D01*
X45572600Y-52012400D02*
X44984200Y-52600800D01*
X18600300Y-74898000D02*
X19728200Y-73770100D01*
X15333400Y-62768400D02*
X15333400Y-72425700D01*
X35142400Y-44731800D02*
X35142400Y-44408300D01*
X41910600Y-52439700D02*
X41352000Y-51881100D01*
X72743300Y-47197600D02*
X74165300Y-45775600D01*
X35142400Y-44408300D02*
X35142400Y-42000200D01*
X41910600Y-61511600D02*
X41910600Y-52600800D01*
X41910600Y-52600800D02*
X41910600Y-52439700D01*
X74165300Y-45775600D02*
X74589900Y-45775600D01*
X46068300Y-64137800D02*
X46068300Y-72787400D01*
X10696300Y-58131300D02*
X15333400Y-62768400D01*
%TO.N,/MUX_A2*%
X21893400Y-54565400D02*
X21893400Y-29026600D01*
X29347800Y-56266800D02*
X29606900Y-56266800D01*
X29606900Y-56266800D02*
X29606900Y-60270700D01*
X44308900Y-47976600D02*
X44507100Y-47976600D01*
X30156200Y-66796500D02*
X25183700Y-61824000D01*
X25183700Y-57682000D02*
X24831200Y-57329500D01*
X32189400Y-66438000D02*
X31830900Y-66796500D01*
X55776600Y-54899900D02*
X58976100Y-54899900D01*
X30923700Y-45138300D02*
X30436400Y-45625600D01*
X25183700Y-61824000D02*
X25183700Y-57682000D01*
X30436400Y-46189000D02*
X27062500Y-49562900D01*
X59406400Y-53536400D02*
X59406400Y-50704700D01*
X41097900Y-64575300D02*
X41097900Y-62853200D01*
X21893400Y-29026600D02*
X19725600Y-26858800D01*
X29606900Y-60270700D02*
X32189400Y-62853200D01*
X32189400Y-62853200D02*
X41097900Y-62853200D01*
X61984500Y-46793000D02*
X61984500Y-52048300D01*
X41097900Y-62853200D02*
X41097900Y-60215200D01*
X28571000Y-50618400D02*
X28571000Y-55490000D01*
X41210500Y-54117800D02*
X40702400Y-53609700D01*
X61453400Y-46261900D02*
X61984500Y-46793000D01*
X41500200Y-54407500D02*
X41210500Y-54117800D01*
X58976100Y-54899900D02*
X59601600Y-54274400D01*
X24657500Y-57329500D02*
X21893400Y-54565400D01*
X41097900Y-60215200D02*
X41500200Y-59812900D01*
X55029100Y-50952900D02*
X55029100Y-54152400D01*
X42314500Y-65791900D02*
X41097900Y-64575300D01*
X68496500Y-46668100D02*
X68931800Y-46232800D01*
X40702400Y-51583100D02*
X44308900Y-47976600D01*
X59601600Y-53731600D02*
X59406400Y-53536400D01*
X28571000Y-55490000D02*
X29347800Y-56266800D01*
X55029100Y-54152400D02*
X55776600Y-54899900D01*
X40702400Y-53609700D02*
X40702400Y-51583100D01*
X68496500Y-50808100D02*
X68496500Y-46668100D01*
X31830900Y-66796500D02*
X30156200Y-66796500D01*
X42314500Y-65843200D02*
X42314500Y-65791900D01*
X27062500Y-49562900D02*
X27062500Y-50538400D01*
X24831200Y-57329500D02*
X24657500Y-57329500D01*
X59601600Y-54274400D02*
X59601600Y-53731600D01*
X41500200Y-59812900D02*
X41500200Y-54407500D01*
X32189400Y-62853200D02*
X32189400Y-66438000D01*
X30436400Y-45625600D02*
X30436400Y-46189000D01*
%TO.N,/READY_LED*%
X60369700Y-59370400D02*
X60927400Y-59370400D01*
X75830800Y-57552100D02*
X75830800Y-49350200D01*
X69983700Y-63399200D02*
X75830800Y-57552100D01*
X41995900Y-68900100D02*
X41995900Y-70592200D01*
X84000000Y-41181000D02*
X84000000Y-41100000D01*
X41881100Y-68785300D02*
X41995900Y-68900100D01*
X64743000Y-63399200D02*
X69983700Y-63399200D01*
X58924400Y-62149700D02*
X58924400Y-60815700D01*
X58924400Y-60815700D02*
X60369700Y-59370400D01*
X24481100Y-65615600D02*
X19403700Y-65615600D01*
X60927400Y-59370400D02*
X64156100Y-62599100D01*
X64156100Y-62812300D02*
X64743000Y-63399200D01*
X64156100Y-62599100D02*
X64156100Y-62812300D01*
X75830800Y-49350200D02*
X84000000Y-41181000D01*
X25064900Y-66199400D02*
X24481100Y-65615600D01*
%TO.N,/RUN*%
X18301000Y-45405300D02*
X18020000Y-45124300D01*
X83000000Y-55300000D02*
X83000000Y-65686200D01*
X18848800Y-73033400D02*
X18301000Y-72485600D01*
X83000000Y-65686200D02*
X79990600Y-68695600D01*
X18301000Y-72485600D02*
X18301000Y-45405300D01*
%TO.N,/SENSE_A*%
X35628200Y-62102100D02*
X38521200Y-62102100D01*
X24268600Y-42017700D02*
X23760700Y-42525600D01*
X28637400Y-56594100D02*
X28637400Y-60580200D01*
X39088800Y-61534500D02*
X39088800Y-56683700D01*
X23760700Y-54265300D02*
X25394100Y-55898700D01*
X39025100Y-56620000D02*
X39025100Y-55287700D01*
X38521200Y-62102100D02*
X39088800Y-61534500D01*
X23760700Y-42525600D02*
X23760700Y-54265300D01*
X39025100Y-55287700D02*
X39212300Y-55100500D01*
X39088800Y-56683700D02*
X39025100Y-56620000D01*
X28637400Y-60580200D02*
X30196800Y-62139600D01*
%TO.N,/SENSE_B*%
X67570600Y-65337300D02*
X67570600Y-75141900D01*
X69734400Y-62797400D02*
X70685600Y-61846200D01*
X17947600Y-74241300D02*
X15933600Y-72227300D01*
X70685600Y-61846200D02*
X70685600Y-55973700D01*
X54700300Y-71332600D02*
X54700300Y-60325200D01*
X54700300Y-60325200D02*
X59224100Y-55801400D01*
X68907000Y-64000900D02*
X67570600Y-65337300D01*
X50916000Y-75116900D02*
X54700300Y-71332600D01*
X69388100Y-64000900D02*
X68907000Y-64000900D01*
X15933600Y-72227300D02*
X15933600Y-44758500D01*
X18024400Y-74241300D02*
X17947600Y-74241300D01*
%TO.N,/SENSE_HI_EN*%
X34442300Y-65405600D02*
X41360200Y-65405600D01*
X19523100Y-56802400D02*
X29931600Y-67210900D01*
X38538500Y-50685200D02*
X38538500Y-61228800D01*
X41360200Y-65405600D02*
X41712700Y-65758100D01*
X19523100Y-45855900D02*
X19523100Y-56802400D01*
X42916200Y-65003500D02*
X41922800Y-64010100D01*
X38272700Y-50419400D02*
X38538500Y-50685200D01*
X41712700Y-65758100D02*
X41712700Y-66103400D01*
X42057900Y-66448600D02*
X42560000Y-66448600D01*
X41712700Y-66103400D02*
X42057900Y-66448600D01*
X32637000Y-67210900D02*
X34442300Y-65405600D01*
X42560000Y-66448600D02*
X42916200Y-66092400D01*
X38538500Y-61228800D02*
X38466600Y-61300700D01*
X29931600Y-67210900D02*
X32637000Y-67210900D01*
X42916200Y-66092400D02*
X42916200Y-65003500D01*
%TO.N,/SENSE_LO_EN*%
X7188000Y-42397400D02*
X7186400Y-42395800D01*
X48831200Y-63000900D02*
X48831200Y-70973700D01*
X45428600Y-74376300D02*
X42167800Y-74376300D01*
X48831200Y-70973700D02*
X45428600Y-74376300D01*
X30409500Y-58703900D02*
X33910200Y-62204600D01*
X51566700Y-56879500D02*
X51566700Y-60265400D01*
X51566700Y-60265400D02*
X48831200Y-63000900D01*
X30409500Y-52475500D02*
X30409500Y-58703900D01*
X7188000Y-52162400D02*
X7188000Y-42397400D01*
X42167800Y-74376300D02*
X36978500Y-69187000D01*
%TO.N,/START_CANCEL_N*%
X60670800Y-68381600D02*
X62817400Y-70528200D01*
X60670800Y-59972200D02*
X60670800Y-68381600D01*
%TO.N,/STIM*%
X75426600Y-45303600D02*
X75253600Y-45130600D01*
X80298900Y-44090000D02*
X81879600Y-42509300D01*
X53436700Y-64786700D02*
X54097400Y-64126000D01*
X81879600Y-39885200D02*
X84000000Y-37764800D01*
X75253600Y-45130600D02*
X74221600Y-45130600D01*
X37338900Y-50334500D02*
X37338900Y-57322400D01*
X54673300Y-49103400D02*
X54427400Y-49349300D01*
X84000000Y-37764800D02*
X84000000Y-34500000D01*
X79722300Y-44666600D02*
X79946400Y-44666600D01*
X75426600Y-56858900D02*
X75426600Y-45303600D01*
X37338900Y-57322400D02*
X37936800Y-57920300D01*
X79946400Y-44666600D02*
X80298900Y-44314100D01*
X75426600Y-45303600D02*
X79085300Y-45303600D01*
X81879600Y-42509300D02*
X81879600Y-39885200D01*
X79085300Y-45303600D02*
X79722300Y-44666600D01*
X71850900Y-49733900D02*
X71269400Y-50315400D01*
X54427400Y-49349300D02*
X54427400Y-56661700D01*
X71850900Y-47501300D02*
X71850900Y-49733900D01*
X54427400Y-56661700D02*
X54097400Y-56991700D01*
X80298900Y-44314100D02*
X80298900Y-44090000D01*
X74221600Y-45130600D02*
X71850900Y-47501300D01*
X74390500Y-57895000D02*
X75426600Y-56858900D01*
X54097400Y-64126000D02*
X54097400Y-56991700D01*
%TO.N,/SWCLK*%
X80179000Y-70577000D02*
X80179000Y-70494400D01*
X79227100Y-68827800D02*
X79227100Y-67928200D01*
X80215400Y-69321900D02*
X79721200Y-69321900D01*
X80117900Y-71733000D02*
X80212900Y-71638000D01*
X80634300Y-70039100D02*
X81773100Y-70039100D01*
X79721200Y-69321900D02*
X79227100Y-68827800D01*
X80212900Y-71638000D02*
X80212900Y-70610900D01*
X80212900Y-70610900D02*
X80179000Y-70577000D01*
X82161800Y-67375500D02*
X80215400Y-69321900D01*
X81773100Y-70039100D02*
X83801900Y-68010300D01*
X80179000Y-70494400D02*
X80634300Y-70039100D01*
X83801900Y-67610900D02*
X83566500Y-67375500D01*
X83566500Y-67375500D02*
X82161800Y-67375500D01*
X83801900Y-68010300D02*
X83801900Y-67610900D01*
%TO.N,/SWDIO*%
X17969500Y-73365600D02*
X17605600Y-73001700D01*
X17605600Y-73001700D02*
X17605600Y-68773000D01*
X68944900Y-71118200D02*
X68944900Y-71616400D01*
X69028400Y-64818400D02*
X69028400Y-71034700D01*
X68944900Y-71616400D02*
X69028400Y-71699900D01*
X69028400Y-71034700D02*
X68944900Y-71118200D01*
X69028400Y-71699900D02*
X69028400Y-73822700D01*
X69028400Y-73822700D02*
X68407200Y-74443900D01*
%TD*%
%TA.AperFunction,Conductor*%
%TO.N,/GND*%
G36*
X86319232Y-23094416D02*
G01*
X86376068Y-23136963D01*
X86400879Y-23203483D01*
X86401200Y-23212472D01*
X86401200Y-25921228D01*
X86381198Y-25989349D01*
X86364295Y-26010323D01*
X84755995Y-27618623D01*
X84693683Y-27652649D01*
X84622868Y-27647584D01*
X84566032Y-27605037D01*
X84541221Y-27538517D01*
X84540900Y-27529528D01*
X84540900Y-24820772D01*
X84560902Y-24752651D01*
X84577805Y-24731677D01*
X86186105Y-23123377D01*
X86248417Y-23089351D01*
X86319232Y-23094416D01*
G37*
%TD.AperFunction*%
%TD*%
M02*
