%TF.GenerationSoftware,KiCad,Pcbnew,9.0.9.1-unknown-202605141413~ce707d0a6c~ubuntu24.04.1*%
%TF.CreationDate,2026-09-18T10:15:02+00:00*%
%TF.ProjectId,pinpath,70696e70-6174-4682-9e6b-696361645f70,rev?*%
%TF.SameCoordinates,Original*%
%TF.FileFunction,Soldermask,Top*%
%TF.FilePolarity,Negative*%
%FSLAX46Y46*%
G04 Gerber Fmt 4.6, Leading zero omitted, Abs format (unit mm)*
G04 Created by KiCad (PCBNEW 9.0.9.1-unknown-202605141413~ce707d0a6c~ubuntu24.04.1) date 2026-09-18 10:15:02*
%MOMM*%
%LPD*%
G01*
G04 APERTURE LIST*
G04 Aperture macros list*
%AMRoundRect*
0 Rectangle with rounded corners*
0 $1 Rounding radius*
0 $2 $3 $4 $5 $6 $7 $8 $9 X,Y pos of 4 corners*
0 Add a 4 corners polygon primitive as box body*
4,1,4,$2,$3,$4,$5,$6,$7,$8,$9,$2,$3,0*
0 Add four circle primitives for the rounded corners*
1,1,$1+$1,$2,$3*
1,1,$1+$1,$4,$5*
1,1,$1+$1,$6,$7*
1,1,$1+$1,$8,$9*
0 Add four rect primitives between the rounded corners*
20,1,$1+$1,$2,$3,$4,$5,0*
20,1,$1+$1,$4,$5,$6,$7,0*
20,1,$1+$1,$6,$7,$8,$9,0*
20,1,$1+$1,$8,$9,$2,$3,0*%
%AMFreePoly0*
4,1,37,0.800000,0.796148,0.878414,0.796148,1.032228,0.765552,1.177117,0.705537,1.307515,0.618408,1.418408,0.507515,1.505537,0.377117,1.565552,0.232228,1.596148,0.078414,1.596148,-0.078414,1.565552,-0.232228,1.505537,-0.377117,1.418408,-0.507515,1.307515,-0.618408,1.177117,-0.705537,1.032228,-0.765552,0.878414,-0.796148,0.800000,-0.796148,0.800000,-0.800000,-1.400000,-0.800000,
-1.403843,-0.796157,-1.439018,-0.796157,-1.511114,-0.766294,-1.566294,-0.711114,-1.596157,-0.639018,-1.596157,-0.603843,-1.600000,-0.600000,-1.600000,0.600000,-1.596157,0.603843,-1.596157,0.639018,-1.566294,0.711114,-1.511114,0.766294,-1.439018,0.796157,-1.403843,0.796157,-1.400000,0.800000,0.800000,0.800000,0.800000,0.796148,0.800000,0.796148,$1*%
%AMFreePoly1*
4,1,37,1.403843,0.796157,1.439018,0.796157,1.511114,0.766294,1.566294,0.711114,1.596157,0.639018,1.596157,0.603843,1.600000,0.600000,1.600000,-0.600000,1.596157,-0.603843,1.596157,-0.639018,1.566294,-0.711114,1.511114,-0.766294,1.439018,-0.796157,1.403843,-0.796157,1.400000,-0.800000,-0.800000,-0.800000,-0.800000,-0.796148,-0.878414,-0.796148,-1.032228,-0.765552,-1.177117,-0.705537,
-1.307515,-0.618408,-1.418408,-0.507515,-1.505537,-0.377117,-1.565552,-0.232228,-1.596148,-0.078414,-1.596148,0.078414,-1.565552,0.232228,-1.505537,0.377117,-1.418408,0.507515,-1.307515,0.618408,-1.177117,0.705537,-1.032228,0.765552,-0.878414,0.796148,-0.800000,0.796148,-0.800000,0.800000,1.400000,0.800000,1.403843,0.796157,1.403843,0.796157,$1*%
%AMFreePoly2*
4,1,37,1.600000,0.796148,1.678414,0.796148,1.832228,0.765552,1.977117,0.705537,2.107515,0.618408,2.218408,0.507515,2.305537,0.377117,2.365552,0.232228,2.396148,0.078414,2.396148,-0.078414,2.365552,-0.232228,2.305537,-0.377117,2.218408,-0.507515,2.107515,-0.618408,1.977117,-0.705537,1.832228,-0.765552,1.678414,-0.796148,1.600000,-0.796148,1.600000,-0.800000,-0.600000,-0.800000,
-0.603843,-0.796157,-0.639018,-0.796157,-0.711114,-0.766294,-0.766294,-0.711114,-0.796157,-0.639018,-0.796157,-0.603843,-0.800000,-0.600000,-0.800000,0.600000,-0.796157,0.603843,-0.796157,0.639018,-0.766294,0.711114,-0.711114,0.766294,-0.639018,0.796157,-0.603843,0.796157,-0.600000,0.800000,1.600000,0.800000,1.600000,0.796148,1.600000,0.796148,$1*%
G04 Aperture macros list end*
%ADD10RoundRect,0.100000X-0.637500X-0.100000X0.637500X-0.100000X0.637500X0.100000X-0.637500X0.100000X0*%
%ADD11C,3.200000*%
%ADD12RoundRect,0.150000X0.150000X-0.587500X0.150000X0.587500X-0.150000X0.587500X-0.150000X-0.587500X0*%
%ADD13RoundRect,0.250000X0.450000X-0.262500X0.450000X0.262500X-0.450000X0.262500X-0.450000X-0.262500X0*%
%ADD14RoundRect,0.250000X-0.262500X-0.450000X0.262500X-0.450000X0.262500X0.450000X-0.262500X0.450000X0*%
%ADD15RoundRect,0.100000X-0.225000X-0.100000X0.225000X-0.100000X0.225000X0.100000X-0.225000X0.100000X0*%
%ADD16C,2.200000*%
%ADD17C,1.850000*%
%ADD18FreePoly0,0.000000*%
%ADD19RoundRect,0.800000X-0.800000X-0.000010X0.800000X-0.000010X0.800000X0.000010X-0.800000X0.000010X0*%
%ADD20FreePoly1,0.000000*%
%ADD21RoundRect,0.800000X0.000010X-0.800000X0.000010X0.800000X-0.000010X0.800000X-0.000010X-0.800000X0*%
%ADD22FreePoly2,270.000000*%
%ADD23RoundRect,0.250000X0.475000X-0.250000X0.475000X0.250000X-0.475000X0.250000X-0.475000X-0.250000X0*%
%ADD24C,1.900000*%
%ADD25R,1.250000X1.000000*%
%ADD26RoundRect,0.243750X-0.243750X-0.456250X0.243750X-0.456250X0.243750X0.456250X-0.243750X0.456250X0*%
%ADD27C,3.000000*%
%ADD28RoundRect,0.250001X-0.499999X-0.499999X0.499999X-0.499999X0.499999X0.499999X-0.499999X0.499999X0*%
%ADD29C,1.500000*%
%ADD30R,2.400000X0.740000*%
%ADD31RoundRect,0.150000X-0.587500X-0.150000X0.587500X-0.150000X0.587500X0.150000X-0.587500X0.150000X0*%
G04 APERTURE END LIST*
D10*
%TO.C,U4*%
X57537500Y-44725000D03*
X57537500Y-45375000D03*
X57537500Y-46025000D03*
X57537500Y-46675000D03*
X57537500Y-47325000D03*
X57537500Y-47975000D03*
X57537500Y-48625000D03*
X57537500Y-49275000D03*
X63262500Y-49275000D03*
X63262500Y-48625000D03*
X63262500Y-47975000D03*
X63262500Y-47325000D03*
X63262500Y-46675000D03*
X63262500Y-46025000D03*
X63262500Y-45375000D03*
X63262500Y-44725000D03*
%TD*%
D11*
%TO.C,H3*%
X91000000Y-71000000D03*
%TD*%
D12*
%TO.C,D9*%
X25550000Y-31937500D03*
X27450000Y-31937500D03*
X26500000Y-30062500D03*
%TD*%
%TO.C,D14*%
X40550000Y-35437500D03*
X42450000Y-35437500D03*
X41500000Y-33562500D03*
%TD*%
D13*
%TO.C,R24*%
X76600000Y-19412500D03*
X76600000Y-17587500D03*
%TD*%
D12*
%TO.C,D16*%
X51250000Y-31437500D03*
X53150000Y-31437500D03*
X52200000Y-29562500D03*
%TD*%
%TO.C,D20*%
X66250000Y-27437500D03*
X68150000Y-27437500D03*
X67200000Y-25562500D03*
%TD*%
D14*
%TO.C,R65*%
X28587500Y-63500000D03*
X30412500Y-63500000D03*
%TD*%
D12*
%TO.C,D11*%
X32750000Y-31937500D03*
X34650000Y-31937500D03*
X33700000Y-30062500D03*
%TD*%
D15*
%TO.C,D37*%
X54950000Y-40850000D03*
X54950000Y-41500000D03*
X54950000Y-42150000D03*
X56850000Y-42150000D03*
X56850000Y-41500000D03*
X56850000Y-40850000D03*
%TD*%
D16*
%TO.C,U1*%
X9875000Y-20000000D03*
D17*
X10175000Y-23030000D03*
X15025000Y-23030000D03*
D16*
X15325000Y-20000000D03*
D18*
X2910000Y-19870000D03*
D19*
X2910000Y-22410000D03*
D20*
X2910000Y-24950000D03*
D19*
X2910000Y-27490000D03*
X2910000Y-30030000D03*
X2910000Y-32570000D03*
X2910000Y-35110000D03*
D20*
X2910000Y-37650000D03*
D19*
X2910000Y-40190000D03*
X2910000Y-42730000D03*
X2910000Y-45270000D03*
X2910000Y-47810000D03*
D20*
X2910000Y-50350000D03*
D19*
X2910000Y-52890000D03*
X2910000Y-55430000D03*
X2910000Y-57970000D03*
X2910000Y-60510000D03*
D20*
X2910000Y-63050000D03*
D19*
X2910000Y-65590000D03*
X2910000Y-68130000D03*
X22290000Y-68130000D03*
X22290000Y-65590000D03*
D18*
X22290000Y-63050000D03*
D19*
X22290000Y-60510000D03*
X22290000Y-57970000D03*
X22290000Y-55430000D03*
X22290000Y-52890000D03*
D18*
X22290000Y-50350000D03*
D19*
X22290000Y-47810000D03*
X22290000Y-45270000D03*
X22290000Y-42730000D03*
X22290000Y-40190000D03*
D18*
X22290000Y-37650000D03*
D19*
X22290000Y-35110000D03*
X22290000Y-32570000D03*
X22290000Y-30030000D03*
X22290000Y-27490000D03*
D18*
X22290000Y-24950000D03*
D19*
X22290000Y-22410000D03*
X22290000Y-19870000D03*
D21*
X10060000Y-68700000D03*
D22*
X12600000Y-67900000D03*
D21*
X15140000Y-68700000D03*
%TD*%
D23*
%TO.C,C5*%
X43800000Y-60950000D03*
X43800000Y-59050000D03*
%TD*%
D13*
%TO.C,R23*%
X77000000Y-23412500D03*
X77000000Y-21587500D03*
%TD*%
%TO.C,R63*%
X74500000Y-32412500D03*
X74500000Y-30587500D03*
%TD*%
%TO.C,R22*%
X74400000Y-23412500D03*
X74400000Y-21587500D03*
%TD*%
%TO.C,R30*%
X76400000Y-40412500D03*
X76400000Y-38587500D03*
%TD*%
D24*
%TO.C,TP2*%
X83500000Y-21800000D03*
%TD*%
D13*
%TO.C,R64*%
X87100000Y-38412500D03*
X87100000Y-36587500D03*
%TD*%
%TO.C,R10*%
X25600000Y-44412500D03*
X25600000Y-42587500D03*
%TD*%
D25*
%TO.C,SW1*%
X43125000Y-69000000D03*
X50875000Y-69000000D03*
%TD*%
D12*
%TO.C,D4*%
X36850000Y-26937500D03*
X38750000Y-26937500D03*
X37800000Y-25062500D03*
%TD*%
D13*
%TO.C,R29*%
X73800000Y-40412500D03*
X73800000Y-38587500D03*
%TD*%
%TO.C,R35*%
X35700000Y-21912500D03*
X35700000Y-20087500D03*
%TD*%
D26*
%TO.C,D41*%
X53562500Y-68500000D03*
X55437500Y-68500000D03*
%TD*%
D13*
%TO.C,R6*%
X49500000Y-18912500D03*
X49500000Y-17087500D03*
%TD*%
D15*
%TO.C,D38*%
X58600000Y-40350000D03*
X58600000Y-41000000D03*
X58600000Y-41650000D03*
X60500000Y-41650000D03*
X60500000Y-41000000D03*
X60500000Y-40350000D03*
%TD*%
D13*
%TO.C,R36*%
X38300000Y-22912500D03*
X38300000Y-21087500D03*
%TD*%
%TO.C,R49*%
X57900000Y-21912500D03*
X57900000Y-20087500D03*
%TD*%
D12*
%TO.C,D28*%
X66250000Y-31937500D03*
X68150000Y-31937500D03*
X67200000Y-30062500D03*
%TD*%
D27*
%TO.C,J2*%
X70760000Y-5180000D03*
X87460000Y-5180000D03*
D28*
X68600000Y-9500000D03*
D29*
X71600000Y-9500000D03*
X74600000Y-9500000D03*
X77600000Y-9500000D03*
X80600000Y-9500000D03*
X83600000Y-9500000D03*
X86600000Y-9500000D03*
X89600000Y-9500000D03*
X68600000Y-12500000D03*
X71600000Y-12500000D03*
X74600000Y-12500000D03*
X77600000Y-12500000D03*
X80600000Y-12500000D03*
X83600000Y-12500000D03*
X86600000Y-12500000D03*
X89600000Y-12500000D03*
%TD*%
D15*
%TO.C,D40*%
X64400000Y-40850000D03*
X64400000Y-41500000D03*
X64400000Y-42150000D03*
X66300000Y-42150000D03*
X66300000Y-41500000D03*
X66300000Y-40850000D03*
%TD*%
D13*
%TO.C,R20*%
X67200000Y-23412500D03*
X67200000Y-21587500D03*
%TD*%
D12*
%TO.C,D24*%
X80650000Y-26937500D03*
X82550000Y-26937500D03*
X81600000Y-25062500D03*
%TD*%
%TO.C,D8*%
X51250000Y-26937500D03*
X53150000Y-26937500D03*
X52200000Y-25062500D03*
%TD*%
D13*
%TO.C,R3*%
X33200000Y-23412500D03*
X33200000Y-21587500D03*
%TD*%
D14*
%TO.C,R75*%
X51587500Y-63500000D03*
X53412500Y-63500000D03*
%TD*%
D13*
%TO.C,R44*%
X42800000Y-39412500D03*
X42800000Y-37587500D03*
%TD*%
D14*
%TO.C,R66*%
X33387500Y-66000000D03*
X35212500Y-66000000D03*
%TD*%
D24*
%TO.C,TP3*%
X85500000Y-25600000D03*
%TD*%
D23*
%TO.C,C10*%
X71000000Y-60950000D03*
X71000000Y-59050000D03*
%TD*%
D13*
%TO.C,R7*%
X53100000Y-18912500D03*
X53100000Y-17087500D03*
%TD*%
%TO.C,R4*%
X32800000Y-19412500D03*
X32800000Y-17587500D03*
%TD*%
D12*
%TO.C,D19*%
X62150000Y-27437500D03*
X64050000Y-27437500D03*
X63100000Y-25562500D03*
%TD*%
D11*
%TO.C,H2*%
X91000000Y-44000000D03*
%TD*%
D13*
%TO.C,R48*%
X50200000Y-39412500D03*
X50200000Y-37587500D03*
%TD*%
D14*
%TO.C,R68*%
X36987500Y-63000000D03*
X38812500Y-63000000D03*
%TD*%
D10*
%TO.C,U5*%
X66537500Y-44725000D03*
X66537500Y-45375000D03*
X66537500Y-46025000D03*
X66537500Y-46675000D03*
X66537500Y-47325000D03*
X66537500Y-47975000D03*
X66537500Y-48625000D03*
X66537500Y-49275000D03*
X72262500Y-49275000D03*
X72262500Y-48625000D03*
X72262500Y-47975000D03*
X72262500Y-47325000D03*
X72262500Y-46675000D03*
X72262500Y-46025000D03*
X72262500Y-45375000D03*
X72262500Y-44725000D03*
%TD*%
D13*
%TO.C,R41*%
X29500000Y-32412500D03*
X29500000Y-30587500D03*
%TD*%
%TO.C,R19*%
X60600000Y-21412500D03*
X60600000Y-19587500D03*
%TD*%
D24*
%TO.C,TP12*%
X83000000Y-55300000D03*
%TD*%
D13*
%TO.C,R59*%
X68600000Y-39412500D03*
X68600000Y-37587500D03*
%TD*%
D14*
%TO.C,R73*%
X44987500Y-65500000D03*
X46812500Y-65500000D03*
%TD*%
D13*
%TO.C,R31*%
X78500000Y-35912500D03*
X78500000Y-34087500D03*
%TD*%
%TO.C,R14*%
X47500000Y-39912500D03*
X47500000Y-38087500D03*
%TD*%
D15*
%TO.C,D39*%
X64750000Y-37350000D03*
X64750000Y-38000000D03*
X64750000Y-38650000D03*
X66650000Y-38650000D03*
X66650000Y-38000000D03*
X66650000Y-37350000D03*
%TD*%
D23*
%TO.C,C8*%
X54900000Y-60950000D03*
X54900000Y-59050000D03*
%TD*%
D13*
%TO.C,R40*%
X52700000Y-22912500D03*
X52700000Y-21087500D03*
%TD*%
D12*
%TO.C,D17*%
X54950000Y-27437500D03*
X56850000Y-27437500D03*
X55900000Y-25562500D03*
%TD*%
D27*
%TO.C,J1*%
X41360000Y-5180000D03*
X58060000Y-5180000D03*
D28*
X39200000Y-9500000D03*
D29*
X42200000Y-9500000D03*
X45200000Y-9500000D03*
X48200000Y-9500000D03*
X51200000Y-9500000D03*
X54200000Y-9500000D03*
X57200000Y-9500000D03*
X60200000Y-9500000D03*
X39200000Y-12500000D03*
X42200000Y-12500000D03*
X45200000Y-12500000D03*
X48200000Y-12500000D03*
X51200000Y-12500000D03*
X54200000Y-12500000D03*
X57200000Y-12500000D03*
X60200000Y-12500000D03*
%TD*%
D14*
%TO.C,R70*%
X41087500Y-63000000D03*
X42912500Y-63000000D03*
%TD*%
D13*
%TO.C,R11*%
X33700000Y-35912500D03*
X33700000Y-34087500D03*
%TD*%
D12*
%TO.C,D31*%
X76550000Y-31937500D03*
X78450000Y-31937500D03*
X77500000Y-30062500D03*
%TD*%
D13*
%TO.C,R27*%
X62600000Y-35912500D03*
X62600000Y-34087500D03*
%TD*%
D14*
%TO.C,R69*%
X37287500Y-65500000D03*
X39112500Y-65500000D03*
%TD*%
D23*
%TO.C,C1*%
X29000000Y-60950000D03*
X29000000Y-59050000D03*
%TD*%
D12*
%TO.C,D6*%
X45050000Y-22937500D03*
X46950000Y-22937500D03*
X46000000Y-21062500D03*
%TD*%
D24*
%TO.C,TP5*%
X85500000Y-29700000D03*
%TD*%
D14*
%TO.C,R76*%
X57387500Y-60000000D03*
X59212500Y-60000000D03*
%TD*%
D10*
%TO.C,U6*%
X28137500Y-51325000D03*
X28137500Y-51975000D03*
X28137500Y-52625000D03*
X28137500Y-53275000D03*
X28137500Y-53925000D03*
X28137500Y-54575000D03*
X28137500Y-55225000D03*
X28137500Y-55875000D03*
X33862500Y-55875000D03*
X33862500Y-55225000D03*
X33862500Y-54575000D03*
X33862500Y-53925000D03*
X33862500Y-53275000D03*
X33862500Y-52625000D03*
X33862500Y-51975000D03*
X33862500Y-51325000D03*
%TD*%
D13*
%TO.C,R61*%
X77300000Y-44412500D03*
X77300000Y-42587500D03*
%TD*%
%TO.C,R60*%
X74700000Y-44412500D03*
X74700000Y-42587500D03*
%TD*%
D23*
%TO.C,C7*%
X51200000Y-60950000D03*
X51200000Y-59050000D03*
%TD*%
D12*
%TO.C,D26*%
X54050000Y-36437500D03*
X55950000Y-36437500D03*
X55000000Y-34562500D03*
%TD*%
D13*
%TO.C,R33*%
X30000000Y-20412500D03*
X30000000Y-18587500D03*
%TD*%
D12*
%TO.C,D32*%
X80650000Y-31437500D03*
X82550000Y-31437500D03*
X81600000Y-29562500D03*
%TD*%
D30*
%TO.C,J3*%
X73050000Y-65460000D03*
X76950000Y-65460000D03*
X73050000Y-66730000D03*
X76950000Y-66730000D03*
X73050000Y-68000000D03*
X76950000Y-68000000D03*
X73050000Y-69270000D03*
X76950000Y-69270000D03*
X73050000Y-70540000D03*
X76950000Y-70540000D03*
%TD*%
D13*
%TO.C,R16*%
X51700000Y-35412500D03*
X51700000Y-33587500D03*
%TD*%
D15*
%TO.C,D36*%
X36000000Y-39850000D03*
X36000000Y-40500000D03*
X36000000Y-41150000D03*
X37900000Y-41150000D03*
X37900000Y-40500000D03*
X37900000Y-39850000D03*
%TD*%
D10*
%TO.C,U7*%
X37137500Y-51325000D03*
X37137500Y-51975000D03*
X37137500Y-52625000D03*
X37137500Y-53275000D03*
X37137500Y-53925000D03*
X37137500Y-54575000D03*
X37137500Y-55225000D03*
X37137500Y-55875000D03*
X42862500Y-55875000D03*
X42862500Y-55225000D03*
X42862500Y-54575000D03*
X42862500Y-53925000D03*
X42862500Y-53275000D03*
X42862500Y-52625000D03*
X42862500Y-51975000D03*
X42862500Y-51325000D03*
%TD*%
D12*
%TO.C,D1*%
X25550000Y-27437500D03*
X27450000Y-27437500D03*
X26500000Y-25562500D03*
%TD*%
%TO.C,D2*%
X25650000Y-22937500D03*
X27550000Y-22937500D03*
X26600000Y-21062500D03*
%TD*%
D31*
%TO.C,U10*%
X62062500Y-59050000D03*
X62062500Y-60950000D03*
X63937500Y-60000000D03*
%TD*%
D10*
%TO.C,U2*%
X28137500Y-44725000D03*
X28137500Y-45375000D03*
X28137500Y-46025000D03*
X28137500Y-46675000D03*
X28137500Y-47325000D03*
X28137500Y-47975000D03*
X28137500Y-48625000D03*
X28137500Y-49275000D03*
X33862500Y-49275000D03*
X33862500Y-48625000D03*
X33862500Y-47975000D03*
X33862500Y-47325000D03*
X33862500Y-46675000D03*
X33862500Y-46025000D03*
X33862500Y-45375000D03*
X33862500Y-44725000D03*
%TD*%
D12*
%TO.C,D12*%
X36850000Y-31437500D03*
X38750000Y-31437500D03*
X37800000Y-29562500D03*
%TD*%
D14*
%TO.C,R71*%
X37887500Y-68000000D03*
X39712500Y-68000000D03*
%TD*%
D13*
%TO.C,R32*%
X81100000Y-35412500D03*
X81100000Y-33587500D03*
%TD*%
%TO.C,R37*%
X42400000Y-22412500D03*
X42400000Y-20587500D03*
%TD*%
D14*
%TO.C,R67*%
X33187500Y-63500000D03*
X35012500Y-63500000D03*
%TD*%
D13*
%TO.C,R17*%
X55400000Y-23412500D03*
X55400000Y-21587500D03*
%TD*%
D15*
%TO.C,D33*%
X29550000Y-36850000D03*
X29550000Y-37500000D03*
X29550000Y-38150000D03*
X31450000Y-38150000D03*
X31450000Y-37500000D03*
X31450000Y-36850000D03*
%TD*%
D12*
%TO.C,D27*%
X62150000Y-31937500D03*
X64050000Y-31937500D03*
X63100000Y-30062500D03*
%TD*%
D13*
%TO.C,R56*%
X87100000Y-17912500D03*
X87100000Y-16087500D03*
%TD*%
%TO.C,R55*%
X79500000Y-21912500D03*
X79500000Y-20087500D03*
%TD*%
%TO.C,R43*%
X40200000Y-39412500D03*
X40200000Y-37587500D03*
%TD*%
D15*
%TO.C,D34*%
X28700000Y-40850000D03*
X28700000Y-41500000D03*
X28700000Y-42150000D03*
X30600000Y-42150000D03*
X30600000Y-41500000D03*
X30600000Y-40850000D03*
%TD*%
D13*
%TO.C,R45*%
X44900000Y-35412500D03*
X44900000Y-33587500D03*
%TD*%
D12*
%TO.C,D10*%
X25650000Y-36437500D03*
X27550000Y-36437500D03*
X26600000Y-34562500D03*
%TD*%
D15*
%TO.C,D35*%
X32350000Y-40350000D03*
X32350000Y-41000000D03*
X32350000Y-41650000D03*
X34250000Y-41650000D03*
X34250000Y-41000000D03*
X34250000Y-40350000D03*
%TD*%
D12*
%TO.C,D23*%
X76550000Y-27437500D03*
X78450000Y-27437500D03*
X77500000Y-25562500D03*
%TD*%
D13*
%TO.C,R54*%
X69400000Y-19412500D03*
X69400000Y-17587500D03*
%TD*%
D12*
%TO.C,D7*%
X47150000Y-27437500D03*
X49050000Y-27437500D03*
X48100000Y-25562500D03*
%TD*%
D13*
%TO.C,R15*%
X47600000Y-35912500D03*
X47600000Y-34087500D03*
%TD*%
D10*
%TO.C,U8*%
X57537500Y-51325000D03*
X57537500Y-51975000D03*
X57537500Y-52625000D03*
X57537500Y-53275000D03*
X57537500Y-53925000D03*
X57537500Y-54575000D03*
X57537500Y-55225000D03*
X57537500Y-55875000D03*
X63262500Y-55875000D03*
X63262500Y-55225000D03*
X63262500Y-54575000D03*
X63262500Y-53925000D03*
X63262500Y-53275000D03*
X63262500Y-52625000D03*
X63262500Y-51975000D03*
X63262500Y-51325000D03*
%TD*%
D12*
%TO.C,D21*%
X70350000Y-26437500D03*
X72250000Y-26437500D03*
X71300000Y-24562500D03*
%TD*%
D24*
%TO.C,TP7*%
X80500000Y-41300000D03*
%TD*%
D12*
%TO.C,D29*%
X70350000Y-35437500D03*
X72250000Y-35437500D03*
X71300000Y-33562500D03*
%TD*%
D24*
%TO.C,TP10*%
X84000000Y-47700000D03*
%TD*%
%TO.C,TP11*%
X83500000Y-51500000D03*
%TD*%
D13*
%TO.C,R25*%
X58400000Y-35912500D03*
X58400000Y-34087500D03*
%TD*%
%TO.C,R58*%
X50500000Y-44412500D03*
X50500000Y-42587500D03*
%TD*%
%TO.C,R39*%
X49100000Y-22912500D03*
X49100000Y-21087500D03*
%TD*%
%TO.C,R8*%
X55700000Y-19412500D03*
X55700000Y-17587500D03*
%TD*%
D14*
%TO.C,R72*%
X45187500Y-63000000D03*
X47012500Y-63000000D03*
%TD*%
D12*
%TO.C,D18*%
X63050000Y-22937500D03*
X64950000Y-22937500D03*
X64000000Y-21062500D03*
%TD*%
%TO.C,D5*%
X40950000Y-26437500D03*
X42850000Y-26437500D03*
X41900000Y-24562500D03*
%TD*%
D13*
%TO.C,R38*%
X39500000Y-18912500D03*
X39500000Y-17087500D03*
%TD*%
D12*
%TO.C,D3*%
X32750000Y-27437500D03*
X34650000Y-27437500D03*
X33700000Y-25562500D03*
%TD*%
D23*
%TO.C,C6*%
X47500000Y-60950000D03*
X47500000Y-59050000D03*
%TD*%
D14*
%TO.C,R77*%
X56187500Y-63500000D03*
X58012500Y-63500000D03*
%TD*%
D10*
%TO.C,U9*%
X66537500Y-51325000D03*
X66537500Y-51975000D03*
X66537500Y-52625000D03*
X66537500Y-53275000D03*
X66537500Y-53925000D03*
X66537500Y-54575000D03*
X66537500Y-55225000D03*
X66537500Y-55875000D03*
X72262500Y-55875000D03*
X72262500Y-55225000D03*
X72262500Y-54575000D03*
X72262500Y-53925000D03*
X72262500Y-53275000D03*
X72262500Y-52625000D03*
X72262500Y-51975000D03*
X72262500Y-51325000D03*
%TD*%
D12*
%TO.C,D25*%
X54950000Y-31937500D03*
X56850000Y-31937500D03*
X55900000Y-30062500D03*
%TD*%
%TO.C,D30*%
X74450000Y-36437500D03*
X76350000Y-36437500D03*
X75400000Y-34562500D03*
%TD*%
D13*
%TO.C,R12*%
X37300000Y-35412500D03*
X37300000Y-33587500D03*
%TD*%
%TO.C,R18*%
X64500000Y-18912500D03*
X64500000Y-17087500D03*
%TD*%
%TO.C,R1*%
X29500000Y-26912500D03*
X29500000Y-25087500D03*
%TD*%
D12*
%TO.C,D13*%
X40950000Y-30937500D03*
X42850000Y-30937500D03*
X41900000Y-29062500D03*
%TD*%
D13*
%TO.C,R5*%
X44900000Y-26912500D03*
X44900000Y-25087500D03*
%TD*%
%TO.C,R51*%
X60100000Y-26912500D03*
X60100000Y-25087500D03*
%TD*%
D23*
%TO.C,C2*%
X32700000Y-60950000D03*
X32700000Y-59050000D03*
%TD*%
D14*
%TO.C,R78*%
X59987500Y-63000000D03*
X61812500Y-63000000D03*
%TD*%
%TO.C,R74*%
X53287500Y-66000000D03*
X55112500Y-66000000D03*
%TD*%
D13*
%TO.C,R46*%
X52500000Y-40412500D03*
X52500000Y-38587500D03*
%TD*%
%TO.C,R26*%
X62500000Y-39912500D03*
X62500000Y-38087500D03*
%TD*%
D24*
%TO.C,TP9*%
X80500000Y-47900000D03*
%TD*%
D13*
%TO.C,R2*%
X25600000Y-18912500D03*
X25600000Y-17087500D03*
%TD*%
D24*
%TO.C,TP1*%
X84000000Y-18000000D03*
%TD*%
D10*
%TO.C,U3*%
X37137500Y-44725000D03*
X37137500Y-45375000D03*
X37137500Y-46025000D03*
X37137500Y-46675000D03*
X37137500Y-47325000D03*
X37137500Y-47975000D03*
X37137500Y-48625000D03*
X37137500Y-49275000D03*
X42862500Y-49275000D03*
X42862500Y-48625000D03*
X42862500Y-47975000D03*
X42862500Y-47325000D03*
X42862500Y-46675000D03*
X42862500Y-46025000D03*
X42862500Y-45375000D03*
X42862500Y-44725000D03*
%TD*%
D12*
%TO.C,D15*%
X47150000Y-31937500D03*
X49050000Y-31937500D03*
X48100000Y-30062500D03*
%TD*%
D13*
%TO.C,R50*%
X58000000Y-17912500D03*
X58000000Y-16087500D03*
%TD*%
%TO.C,R13*%
X44900000Y-31412500D03*
X44900000Y-29587500D03*
%TD*%
D11*
%TO.C,H1*%
X5000000Y-5000000D03*
%TD*%
D12*
%TO.C,D22*%
X69950000Y-30937500D03*
X71850000Y-30937500D03*
X70900000Y-29062500D03*
%TD*%
D13*
%TO.C,R34*%
X36100000Y-17912500D03*
X36100000Y-16087500D03*
%TD*%
%TO.C,R53*%
X74300000Y-27412500D03*
X74300000Y-25587500D03*
%TD*%
D26*
%TO.C,D42*%
X57562500Y-68000000D03*
X59437500Y-68000000D03*
%TD*%
D11*
%TO.C,H4*%
X28500000Y-70500000D03*
%TD*%
D23*
%TO.C,C9*%
X67500000Y-60950000D03*
X67500000Y-59050000D03*
%TD*%
%TO.C,C3*%
X36400000Y-60950000D03*
X36400000Y-59050000D03*
%TD*%
D13*
%TO.C,R62*%
X86900000Y-34412500D03*
X86900000Y-32587500D03*
%TD*%
%TO.C,R52*%
X67200000Y-19412500D03*
X67200000Y-17587500D03*
%TD*%
D24*
%TO.C,TP8*%
X84000000Y-41100000D03*
%TD*%
D13*
%TO.C,R47*%
X45100000Y-39412500D03*
X45100000Y-37587500D03*
%TD*%
D23*
%TO.C,C4*%
X40100000Y-60950000D03*
X40100000Y-59050000D03*
%TD*%
D13*
%TO.C,R57*%
X59400000Y-31912500D03*
X59400000Y-30087500D03*
%TD*%
D24*
%TO.C,TP6*%
X84000000Y-34500000D03*
%TD*%
D13*
%TO.C,R42*%
X25600000Y-48412500D03*
X25600000Y-46587500D03*
%TD*%
%TO.C,R9*%
X25500000Y-40412500D03*
X25500000Y-38587500D03*
%TD*%
%TO.C,R28*%
X71200000Y-39412500D03*
X71200000Y-37587500D03*
%TD*%
%TO.C,R21*%
X71800000Y-22412500D03*
X71800000Y-20587500D03*
%TD*%
D24*
%TO.C,TP4*%
X89000000Y-22900000D03*
%TD*%
M02*
